<svg width="2008" height="1600" viewBox="0 0 2008 1600" fill="none" xmlns="http://www.w3.org/2000/svg">
<path fill-rule="evenodd" clip-rule="evenodd" d="M95.1635 813.309C-71.0525 654.609 -10.3365 376.339 205.837 298.344C207.055 297.904 208.278 297.469 209.505 297.037C484.341 200.343 639.362 377.73 843.911 297.037C1017.95 228.379 1009.95 96.4456 1193.65 32.7016C1232.24 19.3096 1429.2 -47.7984 1604.38 61.1686C1628.32 76.0586 1771.9 165.369 1787.38 325.505C1805.57 513.639 1504.44 575.899 1518.98 707.775C1536.6 867.556 1956.46 862.243 2002.92 1065.64C2027.21 1171.99 1940.79 1297.52 1848.39 1358.44C1667.63 1477.62 1460.97 1351.52 1116.38 1305.58C754.35 1257.31 592.179 1470.61 355.905 1354.38C329.23 1341.25 170.451 1280.93 172.904 1203.91C175.939 1108.6 421.699 1071.02 416.905 996.51C412.818 932.956 232.787 940.593 99.7045 817.575C98.1758 816.161 96.6622 814.739 95.1635 813.309Z" fill="#FFEAF6"/>
<path fill-rule="evenodd" clip-rule="evenodd" d="M449.825 588.654C491.478 642.663 534.865 643.744 561.375 682.795C588.543 722.817 532.825 756.634 561.73 803.571C567.795 813.423 574.268 819.411 577.295 832.454C582.754 855.926 571.401 877.822 559.007 894.09C557.475 895.986 555.358 897.322 552.987 897.89C552.747 897.958 552.507 898.015 552.269 898.06C549.749 898.593 547.13 898.413 544.705 897.542C529.705 892.042 512.794 883.128 502.719 868.412C488.898 848.212 499.314 833.682 496.001 809.255C494.263 796.481 489.001 782.565 418.034 712.9C355.48 651.5 350.856 653.738 339.674 633.953C317.203 594.174 337.225 587.434 316.511 536.264C295.391 484.104 269.09 477.564 261.911 431.264C259.479 415.549 253.489 376.94 278.483 364.664C278.683 364.57 278.883 364.47 279.083 364.382C279.311 364.265 279.553 364.162 279.796 364.058C301.644 354.532 338.515 366.935 360.81 383.696C394.875 409.296 383.19 436.201 412.301 512.596C426.071 548.726 432.967 566.79 449.825 588.654Z" fill="#FD9ECC"/>
<path fill-rule="evenodd" clip-rule="evenodd" d="M279.805 364.061C294.437 377.016 307.859 391.277 319.905 406.667C338.07 430.022 352.151 455.473 360.384 482.153L361.908 487.153C362.336 488.834 362.708 490.52 363.114 492.207L364.314 497.269L365.224 502.369C365.499 504.069 365.857 505.769 366.079 507.469L366.735 512.585C367.23 516 367.452 519.427 367.795 522.848C368.94 536.522 369.572 550.264 373.036 563.704C376.436 577.147 382.968 589.974 391.121 602.039C399.584 614.513 409.846 625.667 421.574 635.139C427.727 640.099 434.191 644.662 440.927 648.798C447.746 653.022 454.873 656.934 462.067 660.753C469.261 664.572 476.543 668.316 483.531 672.384C490.471 676.295 497.058 680.801 503.218 685.853C509.015 690.686 514.079 696.336 518.252 702.626C522.157 708.603 525.251 715.073 527.452 721.866C528.531 725.172 529.391 728.546 530.028 731.966C530.625 735.358 530.977 738.79 531.08 742.234C531.161 745.67 531.03 749.108 530.687 752.528C530.324 755.949 529.8 759.359 529.187 762.752C527.94 769.543 526.367 776.291 525.211 783.075C523.99 789.835 523.298 796.68 523.14 803.548C522.863 817.248 525.263 830.925 529.29 844.238C535.008 863.009 542.963 881.025 552.984 897.897C557.501 905.541 556.921 905.703 552.266 898.067C541.95 881.278 533.681 863.314 527.635 844.56C523.429 831.193 520.879 817.388 521.029 803.522C521.121 796.588 521.752 789.672 522.917 782.837C524.025 775.985 525.529 769.216 526.706 762.476C527.279 759.098 527.767 755.736 528.09 752.368C528.387 749.016 528.483 745.65 528.379 742.287C528.249 738.929 527.888 735.583 527.301 732.275C526.67 728.937 525.82 725.644 524.755 722.419C522.578 715.801 519.538 709.5 515.715 703.677C511.64 697.589 506.71 692.12 501.076 687.439C495.024 682.514 488.56 678.12 481.755 674.304C474.839 670.31 467.577 666.598 460.355 662.778C453.133 658.958 445.913 655.03 438.991 650.766C432.128 646.578 425.54 641.954 419.269 636.923C407.379 627.264 396.985 615.898 388.424 603.196C380.2 590.952 373.582 577.863 370.174 564.168C366.696 550.489 366.118 536.604 365.015 522.991C364.08 509.322 361.716 495.789 357.963 482.614L356.506 477.644C355.962 476 355.325 474.376 354.734 472.744L352.946 467.844C352.636 467.025 352.371 466.197 352.022 465.396L350.966 462.986L346.727 453.329L341.939 443.829C335.121 431.058 327.27 418.867 318.463 407.379C306.689 391.866 293.509 377.472 279.092 364.38C279.32 364.268 279.562 364.165 279.805 364.061Z" fill="white"/>
<path fill-rule="evenodd" clip-rule="evenodd" d="M545.592 834.142C576.946 859.53 616.121 859.76 614.826 878.48C614.532 882.94 611.998 887.34 608.292 891.389C608.022 891.679 607.761 891.961 607.492 892.238C601.412 898.538 592.609 903.885 585.166 907.119C531.166 930.591 457.401 882.538 444.229 873.963C394.177 841.356 405.29 823.669 356.51 789.138C310.401 756.498 290.82 765.463 237.385 735.953C172.129 699.93 113.309 637.953 125.393 611.822C125.542 611.49 125.693 611.178 125.873 610.865C126.386 609.938 126.989 609.064 127.673 608.256C144.824 588.121 225.209 594.471 279.925 621.211C335.061 648.153 322.856 675.645 382.513 704.996C434.32 730.482 462.264 718.964 498.098 744.612C536.591 772.152 507.329 803.155 545.592 834.142Z" fill="#808BD1"/>
<path fill-rule="evenodd" clip-rule="evenodd" d="M638.548 893.724C638.548 893.724 562.053 893.106 547.888 889.45C534.091 885.945 520.748 880.847 508.129 874.258C502.03 871.234 496.397 867.348 491.405 862.719C486.754 858.277 482.779 853.178 479.605 847.585C473.328 836.713 469.394 825.191 462.952 814.919C456.326 804.305 447.552 795.195 437.194 788.175C431.78 784.395 426.06 781.072 420.094 778.24C413.767 775.405 407.189 773.169 400.444 771.561C393.512 769.814 386.299 768.238 379.245 766.281C372.279 764.341 365.419 762.038 358.694 759.381C355.435 758.001 352.125 756.681 348.994 755.161L344.237 752.942L339.62 750.566L335.012 748.183C333.462 747.406 332.032 746.49 330.535 745.651L326.101 743.066C324.601 742.213 323.243 741.233 321.807 740.324C310.717 733.167 300.512 724.722 291.407 715.166C282.483 705.925 274.549 696.199 265.749 687.153C256.867 677.9 247.16 669.476 236.749 661.984C225.829 654.233 214.252 647.453 202.149 641.722C189.495 635.761 176.43 630.714 163.054 626.622C149.232 622.35 135.191 618.823 120.991 616.055L120.229 615.914C120.377 615.582 120.534 615.27 120.708 614.956L121.426 615.082C135.771 617.674 149.967 621.031 163.952 625.14C177.498 629.13 190.738 634.091 203.57 639.985C215.879 645.667 227.668 652.413 238.803 660.145C249.45 667.583 259.353 676.034 268.372 685.38C277.305 694.487 285.3 704.186 294.172 713.306C303.189 722.69 313.285 730.976 324.248 737.989C325.659 738.881 327 739.835 328.472 740.67L332.863 743.198C334.343 744.024 335.754 744.914 337.296 745.686L341.852 748.019L346.424 750.351L351.124 752.521C354.225 754.021 357.483 755.3 360.697 756.651C367.294 759.273 374.02 761.555 380.85 763.489C387.775 765.441 394.926 767.016 401.956 768.816C408.882 770.491 415.635 772.817 422.124 775.762C428.233 778.675 434.084 782.103 439.613 786.007C450.195 793.234 459.142 802.603 465.874 813.507C469.026 818.774 471.84 824.236 474.299 829.861C476.819 835.426 479.247 841.028 482.263 846.373C485.279 851.839 489.08 856.833 493.546 861.196C498.343 865.747 503.776 869.577 509.674 872.567C522.057 879.186 535.168 884.342 548.743 887.93C563.058 891.751 577.722 894.119 592.512 894.997C596.03 895.243 599.567 895.401 603.125 895.469C607.193 895.56 611.277 895.537 615.389 895.434C623.081 895.232 630.816 894.67 638.548 893.724Z" fill="white"/>
<path fill-rule="evenodd" clip-rule="evenodd" d="M1560.66 705.931C1560.66 705.931 1473.13 602.387 1530.86 510.84C1588.58 419.293 1577.8 417.889 1576.9 361.44C1576 304.991 1584.72 246.11 1630.43 225.299C1676.13 204.488 1646.87 165.055 1712.69 156.866C1712.69 156.866 1680.28 248.112 1698.08 292.02C1715.87 335.928 1717.12 418.658 1689.79 456.075C1662.45 493.492 1623.27 547.091 1633.16 607.957C1643.04 668.823 1587.38 704.582 1560.66 705.931Z" fill="#FD9ECC"/>
<path fill-rule="evenodd" clip-rule="evenodd" d="M1571.98 733.495C1564.28 708.746 1560.04 682.856 1560.6 656.995C1560.83 644.074 1562.3 631.205 1564.97 618.563L1565.97 613.831C1566.3 612.252 1566.8 610.713 1567.21 609.153L1568.49 604.488L1569.13 602.156C1569.35 601.381 1569.64 600.627 1569.89 599.861L1573.03 590.712C1574.12 587.702 1575.38 584.757 1576.81 581.891C1578.25 579.044 1579.88 576.246 1581.46 573.415C1583.05 570.584 1584.64 567.745 1586.18 564.886C1589.28 559.175 1592.24 553.386 1595.18 547.607C1601.08 536.053 1606.94 524.48 1612.77 512.886C1618.55 501.27 1624.27 489.608 1629.66 477.781C1635.15 465.969 1640.02 453.877 1644.24 441.554L1645.74 436.896C1646.24 435.342 1646.64 433.755 1647.1 432.187C1647.53 430.611 1648.01 429.05 1648.39 427.46L1649.51 422.684L1650.07 420.297L1650.52 417.883L1651.42 413.057C1651.69 411.443 1651.87 409.815 1652.1 408.195C1652.3 406.571 1652.59 404.955 1652.68 403.32C1654.1 390.266 1653.63 377.077 1651.31 364.154C1650.04 357.721 1648.27 351.395 1646.04 345.23C1643.88 339.066 1641.35 333.083 1639.31 327.002C1638.28 323.977 1637.41 320.901 1636.71 317.786C1636.05 314.678 1635.61 311.528 1635.4 308.359C1635.21 305.184 1635.25 302 1635.5 298.831C1635.79 295.649 1636.27 292.488 1636.93 289.362C1639.4 276.754 1644.98 264.997 1651.01 253.578C1657.07 242.153 1663.71 231.008 1670.31 219.853C1676.93 208.705 1683.52 197.528 1690.27 186.463C1697.04 175.405 1703.95 164.431 1711 153.539C1703.67 164.242 1696.53 175.072 1689.58 186.028C1682.62 196.982 1675.83 208.036 1669.01 219.069C1665.62 224.602 1662.27 230.158 1658.95 235.737C1655.64 241.319 1652.38 246.937 1649.28 252.653C1646.17 258.369 1643.21 264.173 1640.63 270.181C1638.01 276.198 1635.99 282.457 1634.6 288.869C1633.88 292.082 1633.36 295.333 1633.02 298.607C1632.71 301.9 1632.64 305.21 1632.8 308.513C1632.99 311.817 1633.44 315.102 1634.12 318.342C1634.83 321.556 1635.71 324.73 1636.76 327.851C1638.83 334.073 1641.33 340.062 1643.44 346.144C1645.6 352.185 1647.31 358.383 1648.54 364.683C1650.76 377.341 1651.16 390.251 1649.73 403.023C1648.31 415.813 1645.49 428.408 1641.3 440.576C1637.16 452.813 1632.37 464.823 1626.97 476.557C1621.64 488.349 1615.98 500.007 1610.25 511.628C1604.48 523.237 1598.66 534.825 1592.8 546.393C1589.88 552.185 1586.94 557.944 1583.9 563.663C1582.4 566.525 1580.86 569.373 1579.3 572.206C1577.75 575.049 1576.14 577.872 1574.68 580.831C1573.25 583.787 1571.99 586.821 1570.9 589.921L1567.83 599.211C1567.58 599.988 1567.3 600.752 1567.08 601.54L1566.46 603.904L1565.22 608.634C1564.82 610.215 1564.34 611.775 1564.02 613.373L1563.06 618.166C1560.49 630.944 1559.16 643.939 1559.08 656.972C1559.06 669.983 1560.16 682.973 1562.38 695.794L1563.23 700.594C1563.51 702.194 1563.89 703.774 1564.22 705.366C1564.85 708.55 1565.63 711.7 1566.42 714.851C1568.05 721.128 1569.88 727.358 1571.98 733.495Z" fill="white"/>
<path fill-rule="evenodd" clip-rule="evenodd" d="M1463.85 851.242C1463.85 851.242 1445.33 758.302 1533.86 697.527C1622.39 636.752 1683.17 604.641 1695.5 524.662C1707.83 444.683 1731.38 396.63 1777.68 371.562C1823.97 346.494 1820.76 328.062 1856.45 309C1892.14 289.938 1955.21 279.194 1955.21 279.194C1955.21 279.194 1853.37 359.641 1848.79 437.549C1844.21 515.457 1821.69 567.385 1774.68 608.032C1727.66 648.679 1709.88 753.068 1611.08 779.956C1512.28 806.844 1463.85 851.242 1463.85 851.242Z" fill="#AACEF2"/>
<path fill-rule="evenodd" clip-rule="evenodd" d="M1461.73 864.738C1465.14 848.286 1470.42 832.278 1477.47 817.028C1484.55 801.808 1493.72 787.653 1504.72 774.974C1507.56 771.897 1510.32 768.745 1513.32 765.823C1516.29 762.88 1519.38 760.066 1522.6 757.381C1529.08 752.079 1535.85 747.135 1542.88 742.571L1584.85 714.701C1598.83 705.395 1612.8 696.074 1626.65 686.559C1633.58 681.817 1640.47 677.003 1647.31 672.118C1654.14 667.218 1660.92 662.232 1667.45 656.887C1680.33 645.986 1692.1 633.84 1702.59 620.624C1703.95 619.016 1705.16 617.284 1706.44 615.614L1710.23 610.554L1713.83 605.359C1715.03 603.629 1716.25 601.906 1717.36 600.117C1719.63 596.572 1721.94 593.046 1724.05 589.4C1725.12 587.585 1726.23 585.8 1727.26 583.962L1730.34 578.443C1738.48 563.693 1745.42 548.343 1752.1 532.92C1758.67 517.47 1765.41 502.02 1770.51 485.944C1773.11 477.93 1775.22 469.756 1777.04 461.534C1778.85 453.312 1780.28 445.034 1782.24 436.905C1786.19 420.64 1792.69 405.101 1801.48 390.86C1810.19 376.544 1820.67 363.389 1832.68 351.709C1844.73 340.044 1857.86 329.553 1871.9 320.378L1877.11 316.866L1882.49 313.599L1887.87 310.344C1889.67 309.27 1891.43 308.133 1893.3 307.171L1904.36 301.171L1907.13 299.671L1909.96 298.294L1915.62 295.539L1921.28 292.783C1922.22 292.329 1923.16 291.853 1924.11 291.417L1927 290.158L1938.54 285.126C1942.36 283.377 1946.31 281.959 1950.21 280.41L1961.95 275.836L1950.17 280.292C1946.25 281.802 1942.28 283.182 1938.44 284.892L1926.84 289.811L1923.94 291.04C1922.98 291.468 1922.04 291.935 1921.09 292.379L1915.4 295.079L1909.7 297.779L1906.86 299.138L1904.07 300.607L1892.93 306.507C1891.05 307.453 1889.27 308.576 1887.46 309.633L1882.03 312.842L1876.61 316.063L1871.34 319.533C1857.18 328.66 1843.93 339.121 1831.77 350.773C1819.61 362.472 1808.97 375.665 1800.12 390.038C1791.14 404.371 1784.51 420.054 1780.5 436.489C1778.51 444.689 1777.08 452.973 1775.25 461.143C1773.42 469.313 1771.32 477.418 1768.72 485.375C1763.63 501.325 1756.88 516.704 1750.29 532.141C1743.6 547.52 1736.64 562.799 1728.53 577.454L1725.48 582.945C1724.46 584.771 1723.36 586.551 1722.3 588.356C1720.21 591.985 1717.92 595.49 1715.67 599.016C1714.57 600.795 1713.37 602.507 1712.18 604.227L1708.61 609.392L1704.86 614.421C1703.59 616.083 1702.4 617.805 1701.05 619.403C1690.67 632.53 1679.01 644.6 1666.26 655.438C1659.8 660.748 1653.05 665.729 1646.25 670.632C1639.45 675.535 1632.56 680.339 1625.64 685.09C1611.81 694.6 1597.92 704.034 1583.97 713.39L1542.15 741.496C1535.12 746.122 1528.34 751.13 1521.85 756.496C1518.64 759.216 1515.54 762.069 1512.55 765.054C1509.55 768.017 1506.79 771.192 1503.97 774.319C1493.05 787.161 1483.98 801.466 1477.02 816.819C1470.11 832.155 1464.98 848.233 1461.73 864.738Z" fill="white"/>
<path fill-rule="evenodd" clip-rule="evenodd" d="M1649.73 795.425C1665.3 761.095 1704.31 726.425 1767.47 723.241C1830.62 720.057 1862.47 675.595 1878.1 637.798C1893.74 600.001 1940.97 551.831 1940.97 551.831C1940.97 551.831 1940.36 552.006 1939.13 552.31C1938.89 552.376 1938.63 552.439 1938.33 552.51C1932.42 553.951 1916.39 557.424 1888.8 560.317C1852.95 564.068 1832.57 604.06 1800.65 608.593C1768.72 613.126 1742.99 624.152 1716.71 643.986C1690.44 663.82 1670.48 673.594 1615.01 674.435C1559.54 675.276 1505.55 773.305 1505.55 773.305C1505.79 776.549 1506.16 779.644 1506.66 782.591C1506.67 782.68 1506.68 782.77 1506.7 782.858C1521.08 867.463 1634.22 829.645 1649.73 795.425Z" fill="#808BD1"/>
<path fill-rule="evenodd" clip-rule="evenodd" d="M1506.7 782.858C1522.07 778.894 1537.22 774.222 1552.17 768.842C1572.81 761.348 1592.87 752.37 1612.21 741.979C1621.89 736.802 1631.33 731.179 1640.62 725.371C1649.92 719.583 1659.2 713.785 1668.81 708.612C1678.41 703.398 1688.29 698.712 1698.36 694.452C1708.39 690.126 1718.63 686.323 1729.04 683.058C1734.27 681.502 1739.55 680.138 1744.87 678.922C1750.19 677.706 1755.6 676.532 1760.87 674.859C1766.14 673.195 1771.28 671.173 1776.27 668.806C1778.78 667.66 1781.22 666.392 1783.69 665.173L1790.94 661.249C1800.53 655.822 1809.61 649.552 1818.09 642.515C1826.58 635.524 1834.51 627.945 1842.66 620.642C1858.92 605.987 1876.14 592.442 1894.22 580.096C1908.71 570.104 1923.68 560.842 1939.12 552.31C1938.88 552.376 1938.62 552.439 1938.33 552.51C1923.02 560.677 1908.13 569.592 1893.65 579.254C1875.42 591.469 1858.03 604.902 1841.6 619.462L1829.34 630.4L1823.21 635.845C1821.13 637.622 1819.07 639.417 1816.96 641.137C1808.54 648.077 1799.53 654.258 1790.02 659.608L1782.81 663.48C1780.36 664.68 1777.94 665.938 1775.46 667.055C1770.54 669.372 1765.47 671.353 1760.28 672.983C1755.11 674.6 1749.78 675.743 1744.43 676.956C1739.07 678.169 1733.73 679.518 1728.45 681.085C1717.97 684.399 1707.67 688.254 1697.58 692.634C1687.49 696.945 1677.56 701.682 1667.92 706.958C1658.25 712.197 1648.95 718.042 1639.68 723.858C1630.41 729.674 1621.04 735.341 1611.45 740.594C1592.25 751.107 1572.33 760.231 1551.83 767.894C1537.02 773.511 1521.96 778.408 1506.65 782.584C1506.66 782.676 1506.68 782.767 1506.7 782.858Z" fill="white"/>
<path fill-rule="evenodd" clip-rule="evenodd" d="M608.711 66.5896H1503.78C1539.13 66.5896 1567.78 95.2434 1567.78 130.59V808.499C1567.78 843.845 1539.13 872.499 1503.78 872.499H608.711C573.365 872.499 544.711 843.845 544.711 808.499V130.59C544.711 95.2434 573.365 66.5896 608.711 66.5896Z" fill="#404884"/>
<path fill-rule="evenodd" clip-rule="evenodd" d="M466.088 855.713C466.088 893.931 497.07 924.913 535.288 924.913H1419.95C1458.17 924.913 1489.15 893.931 1489.15 855.713V204.185H466.088V855.713Z" fill="#C9E3F4"/>
<path fill-rule="evenodd" clip-rule="evenodd" d="M1419.95 119.002H535.29C497.072 119.002 466.09 149.984 466.09 188.202V204.176H1489.16V188.211C1489.16 169.855 1481.87 152.251 1468.89 139.272C1455.91 126.292 1438.31 119.001 1419.95 119.002V119.002Z" fill="#A7CDF2"/>
<path fill-rule="evenodd" clip-rule="evenodd" d="M540.75 183.362C536.317 183.357 532.081 181.526 529.041 178.299C522.572 171.436 522.572 160.721 529.041 153.859C532.079 150.629 536.317 148.797 540.751 148.797C545.186 148.797 549.423 150.629 552.461 153.859C558.929 160.722 558.929 171.436 552.461 178.299C549.421 181.526 545.184 183.357 540.75 183.362Z" fill="white"/>
<path fill-rule="evenodd" clip-rule="evenodd" d="M586.615 183.362C582.182 183.357 577.946 181.526 574.906 178.299C568.439 171.436 568.439 160.722 574.906 153.859C577.944 150.629 582.182 148.797 586.616 148.797C591.051 148.797 595.288 150.629 598.326 153.859C604.794 160.722 604.794 171.436 598.326 178.299C595.286 181.526 591.049 183.358 586.615 183.362Z" fill="white"/>
<path fill-rule="evenodd" clip-rule="evenodd" d="M632.48 183.362C628.046 183.357 623.81 181.526 620.769 178.299C614.302 171.435 614.302 160.722 620.769 153.859C623.807 150.629 628.045 148.797 632.479 148.797C636.914 148.797 641.151 150.629 644.189 153.859C650.657 160.722 650.657 171.436 644.189 178.299C641.149 181.526 636.914 183.357 632.48 183.362Z" fill="white"/>
<rect x="524.189" y="247.429" width="290.04" height="82.362" fill="#A7CDF2"/>
<rect x="885.335" y="247.429" width="498.618" height="82.362" fill="#A7CDF2"/>
<rect x="525.999" y="594.691" width="284.763" height="18.346" fill="#A7CDF2"/>
<rect x="525.999" y="658.902" width="853.084" height="18.346" fill="#A7CDF2"/>
<rect x="525.999" y="723.112" width="853.084" height="18.346" fill="#A7CDF2"/>
<rect x="525.999" y="787.323" width="853.084" height="18.346" fill="#A7CDF2"/>
<rect x="525.999" y="395.701" width="284.763" height="18.346" fill="#A7CDF2"/>
<rect x="525.999" y="459.912" width="284.763" height="18.346" fill="#A7CDF2"/>
<rect x="525.999" y="524.122" width="284.763" height="18.346" fill="#A7CDF2"/>
<path fill-rule="evenodd" clip-rule="evenodd" d="M413.339 1466.42C413.339 1466.42 471.162 1431.89 554.685 1466.42L484.815 1550.75L413.339 1466.42Z" fill="#353B6E"/>
<path fill-rule="evenodd" clip-rule="evenodd" d="M471.565 1452.37C465.615 1383.8 421.101 1336.98 382.42 1285.32C357.467 1252 324.77 1203.07 293.275 1136.75C261.011 1198.55 266.141 1230.17 276.409 1247.58C291.396 1272.98 317.803 1268.89 330.217 1295.76C348.292 1334.88 308.432 1378.4 325.399 1394.54C339.792 1408.24 374.254 1382.42 390.45 1398.56C402.867 1410.93 390.215 1433.68 404.103 1444.34C414.695 1452.46 425.446 1441.84 440.242 1449.15C461.724 1459.79 462.762 1493.93 467.547 1493.33C471.081 1492.88 473.436 1473.93 471.565 1452.37Z" fill="#FF90C6"/>
<path fill-rule="evenodd" clip-rule="evenodd" d="M482.651 1501.75C417.075 1360.22 407.308 1199.15 455.3 1050.73C442.788 1106.41 452.762 1140.37 464.127 1161.06C477.761 1185.89 492.172 1189.39 497.86 1213.49C506.445 1249.86 478.622 1263.14 480.715 1303.43C482.834 1344.23 512.446 1351.57 520.295 1390.72C524.978 1414.07 522.19 1450.16 482.651 1501.75Z" fill="#808BD1"/>
<path fill-rule="evenodd" clip-rule="evenodd" d="M494.05 1492.52C473.733 1370.27 494.938 1244.74 554.283 1135.95C542.213 1180.26 547.116 1211.53 554.283 1232.32C565.738 1265.54 584.229 1275.62 580.783 1301.38C577.235 1327.92 555.731 1331.3 551.871 1364.03C549.164 1386.97 558.935 1392.08 551.871 1408.2C543.8 1426.62 526.725 1429.82 524.564 1448.35C523.457 1457.85 527.522 1460.61 525.364 1468.43C521.778 1481.47 506.395 1488.57 494.05 1492.52Z" fill="#AACEF2"/>
<path fill-rule="evenodd" clip-rule="evenodd" d="M413.339 1466.42C413.339 1466.42 469.557 1495.33 554.685 1466.42L538.623 1599.74H435.823L413.339 1466.42Z" fill="#404884"/>
<path fill-rule="evenodd" clip-rule="evenodd" d="M1574.37 884.419L1574.15 884.786C1574.1 884.675 1574.05 884.568 1574 884.458L1470.89 819.158L1457.87 836.094L1529.15 907.724C1534.74 913.366 1553.93 925.724 1561.68 923.991C1568.88 922.391 1583 906.737 1595.57 894.168C1607.77 881.965 1574.37 884.419 1574.37 884.419Z" fill="#FFD5C0"/>
<rect x="1248.64" y="658.196" width="208.757" height="242.647" transform="rotate(-17.574 1248.64 658.196)" fill="#AC7DFD"/>
<path fill-rule="evenodd" clip-rule="evenodd" d="M1604.04 702.677C1576.03 713.062 1574.02 772.406 1572.9 805.448C1571.68 841.32 1569.75 898.318 1609.67 942.028C1647.65 983.611 1719.43 1008.7 1749.65 982.148C1780.1 955.393 1756.78 886.37 1747.66 859.396C1718.3 772.484 1642.79 688.309 1604.04 702.677Z" fill="#FF90C6"/>
<path fill-rule="evenodd" clip-rule="evenodd" d="M1548.62 1275.78C1548.62 1275.78 1529.82 1484.99 1516.89 1507.32C1503.96 1529.65 1542.74 1543.75 1552.15 1516.72C1561.55 1489.68 1615.62 1341.59 1595.63 1285.18C1575.65 1228.76 1548.62 1275.78 1548.62 1275.78Z" fill="#FFD5C0"/>
<path fill-rule="evenodd" clip-rule="evenodd" d="M1672.64 1278.34C1672.64 1278.34 1695.09 1487.19 1686.77 1511.62C1678.46 1536.05 1718.25 1553.42 1722.19 1525.07C1726.12 1496.73 1751.21 1329.8 1720.59 1278.37C1689.97 1226.95 1672.64 1278.34 1672.64 1278.34Z" fill="#FFD5C0"/>
<path fill-rule="evenodd" clip-rule="evenodd" d="M1561.1 1531.25L1551.52 1552.08H1542.29C1542.29 1552.08 1507.62 1551.97 1478.53 1551.97H1459.73C1459.73 1551.97 1502.63 1542.82 1514.05 1510.65H1552.6C1554.02 1512.18 1561.9 1521.13 1561.1 1531.25Z" fill="#FF90C6"/>
<path fill-rule="evenodd" clip-rule="evenodd" d="M1734.48 1531.25L1726.38 1552.08H1715.67C1715.67 1552.08 1681 1551.97 1651.91 1551.97H1633.11C1633.11 1551.97 1680.78 1536.81 1687.44 1510.65H1725.99C1727.4 1512.18 1735.28 1521.13 1734.48 1531.25Z" fill="#FF90C6"/>
<path fill-rule="evenodd" clip-rule="evenodd" d="M1602.64 713.08C1602.64 713.08 1568.83 768.924 1605.08 772.74C1605.08 772.74 1615.51 798.065 1592.38 833.495C1570.08 867.659 1659.3 882.851 1668.5 859.203C1677.69 835.555 1654.49 814.557 1642.93 795.165C1631.36 775.773 1637.63 764.773 1637.63 764.773C1637.63 764.773 1653.16 746.747 1635.06 748.994C1635.06 748.994 1607.29 748.128 1602.64 713.08Z" fill="#FFD5C0"/>
<path fill-rule="evenodd" clip-rule="evenodd" d="M1609.81 814.864C1602.58 818.145 1598.47 823.428 1592.49 831.674C1586.26 840.263 1580.73 854.8 1577.92 866.612C1572.45 889.567 1602.13 946.345 1596.25 963.976C1590.38 981.607 1561.55 1083.02 1538.04 1279.3C1538.04 1279.3 1632.07 1331.02 1727.27 1281.65C1727.27 1281.65 1734.46 1045.35 1672.16 957.197C1672.16 957.197 1682.5 892.416 1677.59 855.529C1672.47 817.18 1628.88 806.21 1609.81 814.864Z" fill="#353B6E"/>
<path fill-rule="evenodd" clip-rule="evenodd" d="M1531.67 946.097L1531.45 946.464C1531.4 946.353 1531.35 946.246 1531.3 946.136L1428.19 880.836L1415.17 897.773L1486.45 969.402C1492.04 975.044 1511.23 987.402 1518.98 985.669C1526.18 984.069 1540.3 968.415 1552.87 955.846C1565.07 943.643 1531.67 946.097 1531.67 946.097Z" fill="#FFD5C0"/>
<path fill-rule="evenodd" clip-rule="evenodd" d="M1516.27 935.509C1516.27 935.509 1488.9 969.695 1536.6 973.465C1536.6 973.465 1604.38 902.976 1631.49 860.954C1645.3 839.554 1609.67 810.117 1600.32 821.642C1542.03 893.487 1516.27 935.509 1516.27 935.509Z" fill="#FFD5C0"/>
<path fill-rule="evenodd" clip-rule="evenodd" d="M1634.21 848.754C1635.11 877.672 1630.14 936.866 1593.54 909.754C1556.94 882.642 1634.21 848.754 1634.21 848.754Z" fill="#FFD5C0"/>
<path fill-rule="evenodd" clip-rule="evenodd" d="M1636.47 768.775C1630.14 798.598 1634.21 821.642 1647.77 841.975C1661.33 862.308 1650.48 888.064 1640.99 911.109C1631.5 934.154 1644.15 991.99 1701.54 992.894C1758.92 993.798 1748.08 866.375 1722.32 837.908C1696.57 809.441 1636.47 768.775 1636.47 768.775Z" fill="#FF90C6"/>
<path fill-rule="evenodd" clip-rule="evenodd" d="M1430.73 885.333C1430.73 885.333 1422.12 868.89 1421.28 858.516C1420.44 848.142 1419.15 844.249 1419.15 844.249C1419.15 844.249 1410.93 846.392 1413.06 860.66C1413.06 860.66 1413.25 860.96 1398.34 865.025C1400.04 877.363 1405.76 888.798 1414.61 897.559C1414.61 897.559 1439.75 911.713 1430.73 885.333Z" fill="#FFD5C0"/>
<path fill-rule="evenodd" clip-rule="evenodd" d="M734.597 764.572L726.477 901.62L725.433 919.242L720.282 1006L719.238 1023.62L714.1 1110.38L713.056 1128L707.905 1214.75L706.861 1232.38L701.723 1319.13L700.679 1336.75L695.528 1423.51L694.484 1441.13L687.503 1558.89L669.903 1557.85L689.193 1232.37L690.25 1214.75L695.388 1128L696.432 1110.37L701.57 1023.62L702.627 1006L707.765 919.24L708.809 901.618L716.997 763.526L734.597 764.572Z" fill="#353B6E"/>
<path fill-rule="evenodd" clip-rule="evenodd" d="M948.098 1558.41L931.845 1559.09L927.073 1441.14L926.354 1423.52L922.843 1336.76L922.143 1319.14L918.632 1232.38L917.914 1214.76L914.403 1128.01L913.703 1110.38L910.192 1023.63L909.473 1006.01L905.962 919.251L905.262 901.629L899.691 764.029L915.944 763.351L921.544 901.632L922.244 919.254L948.098 1558.41Z" fill="#353B6E"/>
<rect x="688.02" y="1423.51" width="249.424" height="17.622" fill="#353B6E"/>
<rect x="688.02" y="1319.13" width="237.224" height="17.622" fill="#353B6E"/>
<path fill-rule="evenodd" clip-rule="evenodd" d="M690.257 1214.76H925.244V1232.38H689.199L690.257 1214.76Z" fill="#353B6E"/>
<path fill-rule="evenodd" clip-rule="evenodd" d="M925.248 1110.38V1128H695.394L696.438 1110.38H925.248Z" fill="#353B6E"/>
<path fill-rule="evenodd" clip-rule="evenodd" d="M925.244 1006V1023.62H701.575L702.632 1006H925.244Z" fill="#353B6E"/>
<path fill-rule="evenodd" clip-rule="evenodd" d="M922.236 919.243H707.771L708.815 901.621H921.531L922.236 919.243Z" fill="#353B6E"/>
<rect x="979.47" y="292.647" width="10.8353" height="119.736" rx="3.997" transform="rotate(-29.8728 979.47 292.647)" fill="#AC7DFD"/>
<rect x="977.591" y="293.727" width="10.837" height="119.754" rx="3.997" transform="rotate(-29.876 977.591 293.727)" fill="#FF73B7"/>
<path fill-rule="evenodd" clip-rule="evenodd" d="M1002.67 324.055C1022.98 312.389 1029.57 285.752 1017.4 264.56C1005.22 243.367 978.893 235.645 958.586 247.311C938.279 258.977 931.686 285.613 943.86 306.806C956.034 327.998 982.366 335.721 1002.67 324.055Z" fill="#AC7DFD"/>
<path fill-rule="evenodd" clip-rule="evenodd" d="M999.232 318.067C1016.37 308.222 1021.93 285.742 1011.66 267.857C1001.39 249.972 979.163 243.454 962.025 253.299C944.887 263.145 939.323 285.624 949.598 303.51C959.872 321.395 982.094 327.912 999.232 318.067Z" fill="#FAFCFB"/>
<path fill-rule="evenodd" clip-rule="evenodd" d="M954.553 302.561C953.874 302.561 953.246 302.198 952.906 301.609C948.505 294.047 947.209 285.073 949.293 276.576C951.286 268.241 956.624 261.096 964.051 256.823C964.642 256.435 965.398 256.407 966.015 256.75C966.632 257.092 967.009 257.748 966.993 258.454C966.977 259.16 966.571 259.798 965.939 260.113C959.412 263.873 954.723 270.157 952.975 277.485C951.128 285.032 952.283 293.002 956.196 299.716C956.531 300.303 956.529 301.023 956.191 301.608C955.852 302.193 955.229 302.554 954.553 302.557V302.561Z" fill="#AC7DFD"/>
<path fill-rule="evenodd" clip-rule="evenodd" d="M740.849 1180.32L791.765 1215.74H691.039V1179.22C691.039 1179.22 707.643 1144.9 740.849 1180.32Z" fill="#404884"/>
<path fill-rule="evenodd" clip-rule="evenodd" d="M927.912 1180.32L978.829 1215.74H878.103V1179.22C878.103 1179.22 894.706 1144.9 927.912 1180.32Z" fill="#404884"/>
<path fill-rule="evenodd" clip-rule="evenodd" d="M829.059 724.993C829.059 724.993 825.959 921.541 796.323 965.73C758.56 1022.04 749.705 1111.7 740.423 1180.32L680.416 1179.47C680.416 1179.47 669.689 1038.94 718.716 968.91C726.464 957.842 734.251 862.962 729.872 840.595C725.493 818.228 702.024 772.209 736.384 691.427C770.744 610.645 829.059 724.993 829.059 724.993Z" fill="#FF78BA"/>
<path fill-rule="evenodd" clip-rule="evenodd" d="M864.82 701.046C864.82 701.046 913.839 909.817 907.99 940.127C895.814 1003.22 920.166 1117.23 926.807 1179.21H863.714C863.714 1179.21 811.56 1051.16 841.576 971.119C851.538 944.554 817.225 861.537 806.156 841.619C795.087 821.701 758.56 785.169 766.309 697.727C774.058 610.285 864.82 701.046 864.82 701.046Z" fill="#FF90C6"/>
<path fill-rule="evenodd" clip-rule="evenodd" d="M943.345 474.442L994.37 372.869L1019.7 336.422C1020.8 335.049 1022.46 334.25 1024.21 334.255C1025.96 334.26 1027.62 335.067 1028.7 336.446L1042.87 354.471C1043.82 355.683 1044.24 357.227 1044.04 358.756C1043.84 360.284 1043.04 361.668 1041.81 362.596L1017.04 381.254L977.33 509.222C964.941 518.775 946.677 512.584 942.923 497.396C941.471 491.524 941.3 484.021 943.345 474.442Z" fill="#FFD5C0"/>
<path fill-rule="evenodd" clip-rule="evenodd" d="M847.692 471.974L951.001 456.994L975.942 506.836L809.722 557.27L847.692 471.974Z" fill="#404884"/>
<path fill-rule="evenodd" clip-rule="evenodd" d="M702.115 495.169L596.956 588.144C592.228 594.512 591.856 622.644 598.699 626.654L736.423 681.122V645.702L663.369 600.319L684.894 582.156C705.73 559.93 714.924 534.716 705.294 505.816L702.115 495.169Z" fill="#FFD5C0"/>
<path fill-rule="evenodd" clip-rule="evenodd" d="M697.683 482.991L596.956 588.144C592.228 594.512 591.856 622.644 598.699 626.654L663.369 600.319L689.934 583.719C710.769 561.495 714.924 534.719 705.29 505.819L697.683 482.991Z" fill="#404884"/>
<path fill-rule="evenodd" clip-rule="evenodd" d="M813.216 359.538C813.216 359.538 841.644 419.946 826.245 428.238C810.846 436.53 799.001 436.53 799.001 436.53L803.74 483.91C803.74 483.91 762.283 501.677 750.44 476.802C750.44 476.802 767.023 449.56 769.392 429.424C769.39 429.423 731.486 364.276 813.216 359.538Z" fill="#FFD5C0"/>
<path fill-rule="evenodd" clip-rule="evenodd" d="M801.372 396.256C801.372 396.256 791.897 389.004 791.897 393.887C791.897 399.81 791.897 410.47 801.372 411.654C801.372 411.654 788.343 435.344 758.731 425.869C729.119 416.394 729.118 382.043 755.177 361.907C781.236 341.771 808.477 327.557 825.062 364.276C825.06 364.276 797.819 382.043 801.372 396.256Z" fill="#FF90C6"/>
<path fill-rule="evenodd" clip-rule="evenodd" d="M680.524 516.788C681.485 492.322 701.617 472.994 726.102 473.029H847.111C860.393 473.029 837.149 577.076 848.217 632.419C859.285 687.762 868.141 714.328 868.141 714.328L725.353 716.542C725.353 716.542 677.802 590.668 680.524 516.788Z" fill="#353B6E"/>
<path fill-rule="evenodd" clip-rule="evenodd" d="M663.368 600.32L604.15 580.213C604.15 580.213 589.208 585.931 594.189 596.447C594.189 596.447 585.889 604.379 593.636 610.647C593.636 610.647 588.101 620.24 599.169 626.881L667.427 602.715C667.427 602.715 665.582 599.214 663.368 600.32Z" fill="#808BD1"/>
<path fill-rule="evenodd" clip-rule="evenodd" d="M951.336 456.217C951.336 456.217 946.627 452.43 944.736 457.636C944.736 457.636 941.046 454.278 937.004 458.88L946.784 516.161C946.784 516.161 954.513 520.621 957.094 514.502C957.094 514.502 962.783 518.102 964.504 514.023C964.504 514.023 976.853 513.223 977.554 508.715C977.55 508.715 953.021 451.52 951.336 456.217Z" fill="#808BD1"/>
</svg>
