<svg width="109" height="65" viewBox="0 0 109 65" fill="none" xmlns="http://www.w3.org/2000/svg">
<path fill-rule="evenodd" clip-rule="evenodd" d="M60.139 7.222C59.781 2.217 58.852 0 56.063 0C50.485 0.072 44.407 6.65 36.97 16.948C33.7278 21.4299 28.9596 28.8083 24.556 35.6225C19.0528 44.1382 14.1189 51.773 13.444 51.773C13.301 51.773 13.229 51.415 13.229 50.915C13.229 48.055 15.303 38.544 17.519 30.893C18.0417 29.0804 18.6379 27.1408 19.2335 25.2031C20.9171 19.726 22.596 14.2641 22.596 11.729C22.6065 11.2903 22.5335 10.8535 22.381 10.442C21.594 8.726 17.661 2.505 13.8 2.505C13.7284 2.505 13.6387 2.52306 13.5492 2.54109C13.4599 2.55906 13.3709 2.577 13.3 2.577C10.082 3.435 0 49.415 0 55.851C0 57.779 7.365 64 11.155 64C11.4337 64.0158 11.71 63.9403 11.942 63.785C15.011 60.9955 18.9565 55.0314 24.6639 46.4038L24.664 46.4038L24.664 46.4037C27.7342 41.7627 31.3143 36.3509 35.542 30.248C49.987 9.368 53.562 7.723 57.142 7.723C58.1301 7.83668 59.0948 8.10214 60.002 8.51C60.145 8.51 60.217 8.367 60.217 8.01C60.2146 7.96064 60.2047 7.89459 60.1927 7.81468C60.1697 7.66146 60.139 7.45728 60.139 7.222ZM59.352 50.7C59.5458 50.3761 59.6449 50.0044 59.638 49.627C59.6844 48.5455 58.8591 47.6248 57.779 47.553C57.1393 47.6037 56.5588 47.9469 56.206 48.483C55.9354 48.8297 55.6666 49.1663 55.3995 49.4929C58.8347 37.4416 72.9529 14.588 80.018 14.588C82.306 14.588 85.667 17.734 85.667 20.38C85.667 22.6 82.807 28.961 77.945 34.255C73.154 39.475 69.79 41.763 66.79 43.122C65.003 47.126 63.215 52.063 63.215 54.563C63.215 55.991 64.001 56.563 65.646 56.563C67.5199 56.563 70.4712 55.4856 73.5192 52.9388C73.5449 54.5852 73.9701 56.1541 74.6417 57.5228C71.3017 60.3689 67.4471 62.499 63.429 62.499C62.3363 62.508 61.2494 62.3391 60.211 61.999C58.3135 61.4024 56.0873 58.176 55.1212 55.8086C56.6775 54.2332 58.0933 52.5238 59.352 50.7ZM74.6417 57.5228C77.5426 55.0509 80.0554 52.0388 81.95 49.413C82.3396 48.8953 82.564 48.2722 82.594 47.625C82.5991 47.1492 82.4124 46.6915 82.076 46.355C81.7395 46.0186 81.2818 45.8319 80.806 45.837C79.6185 45.837 78.0222 47.7919 76.4275 49.7448L76.4274 49.7449C75.5257 50.8492 74.6245 51.9528 73.798 52.702C73.705 52.7823 73.6121 52.8613 73.5192 52.9388C73.5184 52.8863 73.518 52.8337 73.518 52.781C73.733 45.558 84.03 33.974 90.752 33.974C92.464 33.974 93.894 36.329 94.752 37.974C96.536 35.829 97.108 35.614 97.752 35.614C99.54 35.614 103.401 36.972 103.401 39.046C103.401 39.6506 101.97 41.7382 101.182 42.8872C101.038 43.097 100.915 43.2755 100.827 43.408C97.967 47.412 93.891 54.277 93.891 56.494C93.891 57.138 94.391 57.281 94.891 57.281C97.4391 57.281 101.771 52.0959 103.846 49.6118C104.158 49.2376 104.42 48.9247 104.616 48.7C105.06 48.0998 105.733 47.7111 106.475 47.627C106.968 47.664 107.426 47.8957 107.748 48.271C108.07 48.6462 108.229 49.1341 108.191 49.627C108.189 50.1461 108.013 50.6496 107.691 51.057H107.692C104.688 55.061 97.895 62.5 91.753 62.506C89.536 62.506 87.176 61.576 86.318 59.145C84.816 60.647 82.957 62.363 80.669 62.363C78.5159 62.363 76.0427 60.3785 74.6417 57.5228ZM54.633 53.918C54.633 54.3851 54.813 55.0531 55.1212 55.8086C54.8446 56.0887 54.5635 56.3645 54.278 56.636C50.703 60.068 46.412 62.142 42.551 62.142C39.548 62.142 33.827 59.493 32.683 56.993C32.2178 55.8351 31.9985 54.5932 32.039 53.346C32.039 43.407 41.907 33.896 48.271 33.896C48.4487 33.896 48.609 33.9137 48.7695 33.9314H48.7695H48.7696C48.9305 33.9492 49.0917 33.967 49.271 33.967C51.201 34.253 55.635 37.471 55.635 40.188C55.277 45.265 49.914 51.272 46.553 51.272C45.123 51.272 42.62 50.127 41.047 49.127C40.3746 50.6369 40.0098 52.2656 39.974 53.918C39.974 56.492 41.118 57.35 43.764 57.35C47.329 57.35 51.1481 54.6916 55.3995 49.4929C54.906 51.2241 54.633 52.7324 54.633 53.918ZM48.983 40.259C48.9931 40.1028 48.9418 39.9489 48.84 39.83C48.8044 39.83 48.7693 39.8121 48.734 39.7942C48.699 39.7764 48.6639 39.7585 48.628 39.758C47.841 39.758 45.41 41.832 43.193 45.193C43.7886 45.5964 44.4767 45.8424 45.193 45.908C46.695 45.908 48.983 41.618 48.983 40.259ZM80.733 23.311C80.7532 23.1183 80.6718 22.9289 80.518 22.811C80.4883 22.811 80.4584 22.7986 80.4233 22.784C80.3745 22.7637 80.3156 22.7392 80.233 22.738C78.516 22.738 73.868 30.533 70.579 36.611C75.727 32.611 80.733 25.385 80.733 23.311ZM87.744 49.269C88.967 46.7045 90.3521 44.2204 91.891 41.832H91.888C91.817 41.189 91.674 40.331 91.248 40.331C89.889 40.331 86.743 44.335 84.812 47.553C82.165 51.848 81.165 54.848 81.165 55.848C81.165 56.276 81.308 56.348 81.523 56.348C83.382 56.348 86.886 50.985 87.744 49.269Z" fill="#353B6E"/>
</svg>
