<svg width="780" height="748" viewBox="0 0 780 748" fill="none" xmlns="http://www.w3.org/2000/svg">
<path d="M106.58 324.29C37.79 364.01 31.71 419.29 38.06 457.77C55.2134 488.43 79.9859 514.148 109.983 532.436C139.98 550.724 174.188 560.966 209.3 562.17C210.431 557.313 210.206 552.238 208.65 547.5C197.31 511.4 173.44 519.5 159.42 502.74C145.4 485.98 138.85 467.12 144.5 440.68C150.15 414.24 143.72 334.24 106.58 324.29Z" fill="black"/>
<path d="M68.6 559.25C73.5445 559.25 78.378 560.716 82.4893 563.463C86.6005 566.21 89.8048 570.115 91.697 574.683C93.5892 579.251 94.0843 584.278 93.1196 589.127C92.155 593.977 89.774 598.431 86.2777 601.928C82.7813 605.424 78.3268 607.805 73.4773 608.77C68.6277 609.734 63.6011 609.239 59.0329 607.347C54.4648 605.455 50.5603 602.251 47.8133 598.139C45.0662 594.028 43.6 589.195 43.6 584.25C43.6 577.62 46.2339 571.261 50.9223 566.572C55.6107 561.884 61.9696 559.25 68.6 559.25ZM68.6 556.88C63.1903 556.878 57.9014 558.48 53.4024 561.484C48.9034 564.489 45.3964 568.759 43.3248 573.757C41.2532 578.754 40.7101 584.254 41.7643 589.56C42.8185 594.866 45.4225 599.74 49.2471 603.566C53.0717 607.392 57.9449 609.998 63.2506 611.054C68.5562 612.11 74.0559 611.569 79.0541 609.499C84.0522 607.429 88.3243 603.924 91.33 599.426C94.3357 594.928 95.94 589.64 95.94 584.23C95.9373 576.979 93.0564 570.025 87.93 564.897C82.8036 559.769 75.8511 556.885 68.6 556.88ZM450.67 514.52H450.9C468.23 514.551 484.839 521.46 497.077 533.73C509.315 546.001 516.18 562.628 516.165 579.957C516.15 597.287 509.255 613.902 496.995 626.151C484.736 638.4 468.115 645.28 450.785 645.28C433.455 645.28 416.834 638.4 404.575 626.151C392.315 613.902 385.42 597.287 385.405 579.957C385.39 562.628 392.255 546.001 404.493 533.73C416.731 521.46 433.34 514.551 450.67 514.52ZM191.84 92.5201C202.215 92.5069 212.559 93.6744 222.67 96C253.1 103 275.9 119.73 293.1 136.94C301.54 145.37 309.89 160.23 319.16 178.06C328.43 195.89 338.67 216.7 351.11 237.11C376 277.93 409.78 317.29 462.49 328C515.2 338.71 577.23 315.43 629.08 301.56C655 294.61 678.39 290 696.61 293C714.83 296 727.97 306.21 734.18 329.64C757.77 418.64 681.36 537.27 518.54 585.54C518.69 583.71 518.77 581.86 518.77 579.99C518.762 561.997 511.611 544.742 498.889 532.018C486.167 519.294 468.913 512.141 450.92 512.13H450.67C439.642 512.178 428.792 514.91 419.057 520.092C409.322 525.274 400.996 532.75 394.798 541.871C388.601 550.993 384.718 561.488 383.487 572.447C382.255 583.406 383.712 594.5 387.73 604.77C259.73 602.98 165.92 533.89 83.87 432.4C32.79 369.25 14.55 300.36 21 241.85C27.45 183.34 58.54 135.28 106.23 113.53C139.17 98.53 167.48 92.53 191.84 92.53V92.5201ZM192.69 90.17C190.17 90.17 187.607 90.2201 185 90.3201C161.86 91.3201 135.42 97.5901 105.24 111.32C56.72 133.46 25.17 182.32 18.65 241.54C12.13 300.76 30.6 370.29 82 433.91C164.43 535.91 259.16 605.62 388.4 607.17C388.493 607.18 388.587 607.18 388.68 607.17C394.635 620.82 404.914 632.132 417.934 639.362C430.954 646.593 445.99 649.339 460.725 647.178C475.46 645.018 489.075 638.07 499.47 627.406C509.866 616.742 516.465 602.955 518.25 588.17H518.34C682.56 539.81 760.52 419.99 736.44 329.17C730.09 305 715.91 293.78 697 290.69C678.09 287.6 654.48 292.31 628.47 299.26C576.47 313.18 514.71 336.15 462.96 325.66C411.21 315.17 377.86 276.46 353.12 235.87C340.76 215.58 330.55 194.87 321.26 176.96C311.97 159.05 303.64 144.12 294.77 135.26C277.37 117.86 254.18 100.82 223.2 93.69C213.189 91.4087 202.957 90.2383 192.69 90.2V90.17Z" fill="#F4CCC7"/>
<path d="M420.53 358.05C420.53 470.85 329.09 562.29 216.29 562.29C103.5 562.29 12.06 470.85 12.06 358.05C12.06 245.25 103.5 153.81 216.29 153.81C329.08 153.81 420.53 245.25 420.53 358.05Z" fill="#5F95CF"/>
<path d="M14.89 324.13C6.53855 373.789 16.8157 424.783 43.75 467.33C75.7989 508.588 122.461 535.971 174.11 543.83C194.98 537.37 192.62 508.83 168.11 494.69C145.65 481.69 113.21 458.29 125.74 411.14C146.21 334.14 79.17 284.8 14.93 324.14L14.89 324.13Z" fill="black"/>
<path d="M216 153.81C210.907 153.81 205.823 154.01 200.75 154.41C191.9 177.92 180.44 216.54 190.89 237.83C206.6 269.83 248.29 298.26 246.48 329.07C244.67 359.88 241.04 387.07 264.61 391.3C288.18 395.53 296.61 353.24 334.09 358.07C360.95 361.54 396.51 360.96 420.27 347.66C417.608 295.354 394.953 246.069 356.986 209.992C319.02 173.914 268.644 153.801 216.27 153.81H216Z" fill="black"/>
<path d="M216 153.81C206.259 153.834 196.531 154.546 186.89 155.94C178.13 179.14 166.67 217.55 177.03 238.68C192.55 270.3 233.73 298.35 231.94 328.79C230.15 359.23 226.57 386.08 249.84 390.25C273.11 394.42 281.47 352.66 318.47 357.43C351.88 361.74 398.91 359.72 419.15 334.24C413.314 284.535 389.431 238.703 352.036 205.443C314.641 172.182 266.336 153.809 216.29 153.81H216Z" fill="#616AB1"/>
<path d="M208.18 180.66C202.154 180.939 196.147 181.523 190.18 182.41C189.87 182.456 189.591 182.624 189.404 182.876C189.217 183.129 189.139 183.445 189.185 183.755C189.231 184.065 189.399 184.345 189.651 184.531C189.904 184.718 190.22 184.796 190.53 184.75C236.222 177.961 282.746 189.493 319.978 216.836C357.209 244.179 382.135 285.12 389.33 330.75C389.386 331.052 389.558 331.321 389.809 331.498C390.061 331.676 390.371 331.748 390.675 331.7C390.979 331.652 391.252 331.487 391.436 331.24C391.62 330.994 391.7 330.685 391.66 330.38C384.835 287.231 362.347 248.112 328.494 220.5C294.642 192.889 251.8 178.722 208.16 180.71L208.18 180.66Z" fill="#837AB9"/>
<path d="M12.87 339.85C12.33 345.85 12.06 351.98 12.06 358.05C12.0575 406.872 29.5453 454.079 61.3542 491.116C93.163 528.153 137.188 552.57 185.45 559.94C206.32 553.48 203.96 524.94 179.45 510.8C156.99 497.8 124.55 474.4 137.08 427.25C167.55 312.62 62.65 290.11 12.91 339.85H12.87Z" fill="#616AB1"/>
<path d="M576.92 60.65C581.865 60.65 586.698 62.1163 590.809 64.8633C594.92 67.6103 598.125 71.5148 600.017 76.0829C601.909 80.6511 602.404 85.6778 601.44 90.5273C600.475 95.3768 598.094 99.8314 594.598 103.328C591.101 106.824 586.647 109.205 581.797 110.17C576.948 111.134 571.921 110.639 567.353 108.747C562.785 106.855 558.88 103.651 556.133 99.5393C553.386 95.4281 551.92 90.5946 551.92 85.65C551.92 79.0196 554.554 72.6608 559.242 67.9724C563.931 63.284 570.29 60.65 576.92 60.65ZM576.92 58.28C571.51 58.2781 566.221 59.8804 561.722 62.8845C557.223 65.8885 553.716 70.1593 551.645 75.1567C549.573 80.1541 549.03 85.6536 550.084 90.9596C551.138 96.2657 553.742 101.14 557.567 104.966C561.392 108.792 566.265 111.398 571.571 112.454C576.876 113.51 582.376 112.969 587.374 110.899C592.372 108.829 596.644 105.324 599.65 100.826C602.656 96.328 604.26 91.0398 604.26 85.63C604.257 78.3789 601.376 71.4254 596.25 66.2971C591.124 61.1689 584.171 58.2853 576.92 58.28Z" fill="#F4CCC7"/>
<path d="M170.14 186.64C170.024 186.625 169.906 186.625 169.79 186.64C141.377 194.354 115.327 209.012 93.9853 229.294C72.6436 249.576 56.6796 274.846 47.53 302.83C47.432 303.127 47.4559 303.451 47.5966 303.73C47.7372 304.01 47.983 304.222 48.28 304.32C48.5784 304.418 48.9036 304.395 49.1846 304.254C49.4656 304.114 49.6796 303.868 49.78 303.57C58.8174 275.972 74.5729 251.053 95.6295 231.054C116.686 211.056 142.383 196.604 170.41 189C170.559 188.961 170.7 188.892 170.822 188.798C170.945 188.704 171.048 188.587 171.125 188.453C171.202 188.319 171.252 188.171 171.272 188.018C171.292 187.865 171.281 187.709 171.24 187.56C171.174 187.316 171.031 187.1 170.833 186.944C170.635 186.787 170.392 186.698 170.14 186.69V186.64Z" fill="#72C7F0"/>
<path d="M391.88 373.39C391.59 373.399 391.312 373.513 391.1 373.712C390.888 373.911 390.757 374.181 390.73 374.47C386.666 417.678 366.709 457.84 334.725 487.175C302.741 516.509 261.008 532.928 217.61 533.25C217.298 533.255 217 533.383 216.781 533.606C216.563 533.828 216.44 534.128 216.44 534.44C216.441 534.595 216.473 534.748 216.534 534.891C216.594 535.034 216.682 535.163 216.793 535.272C216.903 535.38 217.034 535.466 217.178 535.524C217.321 535.582 217.475 535.611 217.63 535.61C261.612 535.278 303.907 518.635 336.32 488.904C368.734 459.173 388.96 418.47 393.08 374.68C393.094 374.525 393.077 374.369 393.03 374.22C392.983 374.072 392.907 373.934 392.806 373.815C392.706 373.696 392.583 373.598 392.445 373.527C392.306 373.456 392.155 373.413 392 373.4H391.86L391.88 373.39Z" fill="#72C7F0"/>
<path d="M42.06 329.71C41.7696 329.699 41.4852 329.795 41.2605 329.979C41.0357 330.163 40.8862 330.423 40.84 330.71C37.2328 353.875 38.2487 377.526 43.8289 400.296C49.4091 423.067 59.4432 444.507 73.3523 463.38C87.2613 482.252 104.77 498.184 124.868 510.255C144.966 522.326 167.255 530.298 190.45 533.71C190.76 533.756 191.076 533.678 191.329 533.491C191.581 533.305 191.749 533.025 191.795 532.715C191.841 532.405 191.763 532.089 191.576 531.836C191.389 531.584 191.11 531.416 190.8 531.37C167.914 528.004 145.922 520.139 126.091 508.23C106.261 496.32 88.9851 480.601 75.261 461.981C61.5369 443.36 51.6361 422.206 46.1299 399.739C40.6237 377.272 39.6211 353.937 43.18 331.08C43.2041 330.926 43.1972 330.768 43.1598 330.616C43.1225 330.464 43.0553 330.322 42.9623 330.196C42.8692 330.07 42.7522 329.964 42.6179 329.884C42.4836 329.805 42.3347 329.752 42.18 329.73H42.05L42.06 329.71Z" fill="#837AB9"/>
<path d="M304.93 204.48C304.837 204.47 304.743 204.47 304.65 204.48C277.77 211.68 265.19 222 261.4 234.48C257.61 246.96 262.6 261.18 269.77 276.04C276.94 290.9 286.34 306.63 291.9 322C296.96 336 298.82 349.64 293.07 362.4C294.12 361.8 295.2 361.23 296.31 360.71C301 348 298.94 334.55 294.12 321.2C288.45 305.52 278.99 289.82 271.9 275.11C264.81 260.4 260.18 246.74 263.66 235.26C267.14 223.78 278.75 213.92 305.27 206.81C305.544 206.737 305.783 206.568 305.943 206.334C306.102 206.099 306.172 205.815 306.139 205.533C306.106 205.251 305.973 204.991 305.764 204.799C305.555 204.608 305.284 204.498 305 204.49L304.93 204.48Z" fill="#837AB9"/>
<path d="M102.19 320.63C105.45 331.63 113.68 365.99 101.02 399.08C93.33 419.2 83.69 430.34 76.02 436.48C68.35 442.62 62.8 443.7 62.8 443.7C62.6477 443.731 62.5029 443.791 62.374 443.878C62.2451 443.965 62.1345 444.076 62.0486 444.206C61.9627 444.336 61.9032 444.481 61.8734 444.633C61.8436 444.786 61.8441 444.943 61.875 445.095C61.9059 445.247 61.9664 445.392 62.0532 445.521C62.14 445.65 62.2514 445.761 62.3809 445.846C62.5105 445.932 62.6557 445.992 62.8082 446.022C62.9608 446.051 63.1177 446.051 63.27 446.02C63.27 446.02 69.49 444.72 77.49 438.32C85.49 431.92 95.4 420.39 103.22 399.93C115.5 367.82 108.61 334.83 105 321.93C104.07 321.48 103.13 321.06 102.18 320.66L102.19 320.63Z" fill="#837AB9"/>
<path d="M93.68 636.67C103.54 636.73 117.54 660.23 128.92 695.8C135.36 683.35 141.69 677.08 146.92 678.02C155.25 679.52 159.57 699.41 158.19 729.9C177.73 733.79 188.95 739.69 189.11 746.18C189.129 746.761 189.058 747.341 188.9 747.9H0.899994C3.15999 743.59 10.17 739.41 21.14 735.81C10.09 718.63 6.41999 706.15 11.06 701.48C16.51 695.99 32.75 701.92 54.36 717.3C50.51 702.73 50.98 693.17 55.7 690.35C61.29 686.99 72.36 693.35 86.21 707.91C79.82 668.12 82.31 639.19 92.32 636.83C92.7719 636.721 93.2352 636.668 93.7 636.67H93.68Z" fill="#56BB6A"/>
<path d="M83.78 689.51C84.36 695.4 85.17 701.57 86.19 707.91C86.19 707.91 95.12 721.16 99 730.41L102.88 739.66C102.88 739.66 100.14 710.18 83.78 689.51Z" fill="black"/>
<path d="M21.12 735.81L28.81 747.9C23.9826 745.526 19.9415 741.811 17.17 737.2L21.17 735.81H21.12Z" fill="black"/>
<path d="M344.32 636.67C334.46 636.73 320.45 660.23 309.07 695.8C302.63 683.35 296.3 677.08 291.12 678.02C282.78 679.52 278.46 699.41 279.84 729.9C260.3 733.79 249.09 739.69 248.92 746.18C248.91 746.761 248.984 747.34 249.14 747.9H437.14C434.88 743.59 427.88 739.41 416.9 735.81C427.96 718.63 431.62 706.15 426.98 701.48C421.53 695.99 405.29 701.92 383.69 717.3C387.54 702.73 387.06 693.17 382.35 690.35C376.76 686.99 365.68 693.35 351.83 707.91C358.23 668.12 355.74 639.19 345.73 636.83C345.278 636.721 344.815 636.668 344.35 636.67H344.32Z" fill="#56BB6A"/>
<path d="M303.89 687.07C302.89 689.86 301.53 693.65 299.63 699.22C293.51 717.15 299 741 299 741C299 741 299.21 737.84 301.32 726.23C303.43 714.62 309.07 695.81 309.07 695.81C307.535 692.79 305.805 689.874 303.89 687.08V687.07Z" fill="black"/>
<path d="M383.66 717.3C379.828 720.356 376.262 723.732 373 727.39C370.745 729.886 368.699 732.561 366.88 735.39C369.392 729.29 372.246 723.337 375.43 717.56C377.867 713.188 381.462 709.573 385.82 707.11C385.82 707.11 385.13 714.79 383.71 717.28L383.66 717.3Z" fill="black"/>
<path d="M742.88 662.83L752.2 680.43C747.38 690.05 736.51 698.1 727.99 700.07L711.2 676.77L722.3 663.77L742.88 662.86V662.83Z" fill="#F9B098"/>
<path d="M722.3 663.74L711.2 676.74C711.2 676.74 737.2 678.86 746.8 670.21L742.88 662.8L722.3 663.71V663.74Z" fill="black"/>
<path d="M766.4 687.79C762.182 690.477 757.792 692.885 753.26 695C747.01 697.79 742.07 688.63 742.07 688.63C757.81 672.52 759.22 678.92 766.4 687.77V687.79Z" fill="white"/>
<path d="M766.4 687.79C755.85 694.87 750.7 696.1 742.07 688.65L729.67 698.7C729.67 698.7 716.33 694.16 720.81 705.89C722.86 711.26 720.26 719.06 716.48 727.05C711.992 728.764 707.605 730.73 703.34 732.94C690.98 739.94 690.99 747.94 700.29 747.94L732.21 746.26L779.12 709.42C777.56 699.62 772.32 690.09 766.4 687.83V687.79Z" fill="#4F469C"/>
<path d="M729.13 707.29C731.049 706.147 733.298 705.687 735.511 705.985C737.724 706.282 739.772 707.321 741.32 708.93C742.076 709.785 742.634 710.797 742.952 711.893C743.27 712.99 743.341 714.143 743.16 715.27C743.102 716.256 742.754 717.202 742.16 717.99C741.663 718.53 740.996 718.883 740.27 718.99C738.66 719.3 736.27 718.8 733.93 717.88C730.865 716.62 727.953 715.017 725.25 713.1C725.809 710.741 727.205 708.666 729.18 707.26L729.13 707.29ZM712.69 711.6C711.977 712.043 711.339 712.596 710.8 713.24C710.062 714.1 709.543 715.126 709.289 716.23C709.034 717.335 709.052 718.484 709.34 719.58C709.93 721.8 713.34 725.58 716.34 727.39C716.781 726.792 717.097 726.112 717.27 725.39C714.56 723.68 711.92 720.57 711.51 719.01C711.333 718.262 711.331 717.482 711.505 716.733C711.678 715.984 712.022 715.285 712.51 714.69C715.93 709.82 723.11 714.51 723.16 714.55C726.255 716.722 729.578 718.549 733.07 720C735.63 721 738.28 721.68 740.66 721.22C741.874 721.006 742.98 720.39 743.8 719.47C744.709 718.355 745.262 716.993 745.39 715.56C745.6 714.117 745.494 712.645 745.079 711.247C744.665 709.848 743.952 708.556 742.99 707.46C741.141 705.445 738.642 704.145 735.93 703.79C733.141 703.393 730.302 704.011 727.93 705.53C725.668 707.029 723.985 709.255 723.16 711.84C721.729 710.914 720.084 710.369 718.383 710.257C716.682 710.145 714.98 710.469 713.44 711.2C713.186 711.323 712.939 711.459 712.7 711.61L712.69 711.6Z" fill="#837AB9"/>
<path d="M773.44 694.22C771.66 697.48 769.65 701.45 769.37 704.15C769.231 706.036 768.631 707.86 767.624 709.46C766.616 711.061 765.231 712.39 763.59 713.33L730.28 740.33H694.74C692.16 744.57 694.28 747.89 700.29 747.89H726.18C730.18 747.89 733.42 747.25 735.99 745.36L779.12 709.36C778.285 703.971 776.352 698.811 773.44 694.2V694.22Z" fill="black"/>
<path d="M715.46 720.81C715.345 720.9 715.249 721.012 715.177 721.139C715.105 721.266 715.059 721.406 715.041 721.551C715.024 721.696 715.035 721.842 715.074 721.983C715.113 722.124 715.18 722.255 715.27 722.37C715.359 722.486 715.47 722.583 715.597 722.656C715.724 722.728 715.864 722.775 716.008 722.794C716.153 722.813 716.301 722.802 716.442 722.764C716.583 722.725 716.715 722.66 716.83 722.57C717.131 722.327 717.48 722.151 717.854 722.053C718.228 721.954 718.619 721.937 719 722C719.464 722.098 719.9 722.296 720.279 722.581C720.657 722.866 720.968 723.231 721.19 723.65C721.361 723.87 721.609 724.019 721.884 724.066C722.159 724.114 722.441 724.057 722.677 723.906C722.912 723.756 723.083 723.524 723.155 723.254C723.228 722.985 723.198 722.698 723.07 722.45C722.676 721.773 722.143 721.186 721.508 720.728C720.872 720.269 720.147 719.95 719.38 719.79C718.695 719.676 717.993 719.706 717.32 719.878C716.646 720.05 716.016 720.361 715.47 720.79L715.46 720.81Z" fill="#837AB9"/>
<path d="M710.54 727.34C710.423 727.428 710.325 727.539 710.251 727.666C710.178 727.792 710.13 727.933 710.112 728.078C710.093 728.223 710.104 728.371 710.143 728.512C710.182 728.653 710.249 728.785 710.34 728.9C710.522 729.135 710.789 729.287 711.084 729.325C711.378 729.362 711.675 729.281 711.91 729.1C712.206 728.854 712.55 728.674 712.921 728.573C713.292 728.471 713.68 728.45 714.06 728.51C714.524 728.608 714.96 728.806 715.339 729.091C715.717 729.376 716.028 729.741 716.25 730.16C716.327 730.284 716.429 730.391 716.548 730.475C716.667 730.559 716.801 730.619 716.944 730.65C717.086 730.682 717.233 730.685 717.377 730.659C717.521 730.633 717.658 730.579 717.78 730.5C718.029 730.343 718.206 730.094 718.272 729.807C718.337 729.521 718.286 729.219 718.13 728.97C717.738 728.289 717.205 727.699 716.567 727.24C715.929 726.782 715.201 726.464 714.43 726.31C713.748 726.199 713.05 726.23 712.38 726.402C711.711 726.574 711.084 726.883 710.54 727.31V727.34Z" fill="#837AB9"/>
<path d="M554.2 337.88C554.2 337.88 544.4 505.88 543.2 522.62C542.3 535.26 547.5 623.97 546.6 665.84C534.85 679.98 550.03 688.12 550.91 688.07H585.52C590.9 682.7 601.85 682.75 595.91 660.57C603.64 637.73 611.81 600.47 604.35 526.02L614.35 454.74C619.727 480.7 626.467 506.358 634.54 531.61C638.81 543.54 677.16 621.61 693.21 660.27C688.14 677.94 711.21 676.77 711.21 676.77L742.89 662.83C745.65 655.74 753.16 653.07 738.78 635.16C738.52 615.92 721.78 557.95 690.33 515.53L686 454.74C683.34 418.74 680.32 381.55 678.59 373.47C675 356.76 670.17 337.88 670.17 337.88H554.2Z" fill="#4F469C"/>
<path d="M585.53 688.07L581.68 707.62C571.88 712.05 558.37 711.46 550.51 707.62L550.91 688.07L567.74 684.94L585.53 688.07Z" fill="#F9B098"/>
<path d="M567.74 684.94L550.91 688.07C550.91 688.07 571.04 697 583.91 696.3L585.53 688.07L567.74 684.94Z" fill="black"/>
<path d="M588.08 722.28C583.108 721.712 578.178 720.824 573.32 719.62C566.71 717.85 568.64 707.62 568.64 707.62C591.02 705.03 588.08 710.88 588.08 722.28Z" fill="white"/>
<path d="M592.1 747.9C597.1 739.31 594.83 731.9 588.1 722.28C575.45 721.13 570.67 718.84 568.66 707.62H552.66C552.66 707.62 545.17 695.69 541.26 707.62C537.35 719.55 509.15 726.72 498.26 732.94C485.89 739.94 485.91 747.94 495.2 747.94L592.1 747.9Z" fill="#4F469C"/>
<path d="M552.74 362.66C552.74 363.2 552.65 364.32 552.61 364.9C582.129 370.428 612.167 372.685 642.18 371.63C645.078 377.424 648.928 382.691 653.57 387.21C658.094 391.706 663.739 394.907 669.92 396.48L687.77 513.71C687.77 513.71 690.77 522.15 690.31 515.53L672.25 396.92C675.273 397.38 678.347 397.38 681.37 396.92C681.3 396.21 681.23 395.4 681.16 394.72C669.95 396.52 661.34 391.57 655.16 385.63C650.953 381.516 647.417 376.769 644.68 371.56C655.31 371.09 666.34 370.13 677.58 368.56C677.42 367.82 677.26 367.1 677.09 366.37C624.61 373.74 576.69 367.23 552.79 362.7L552.74 362.66Z" fill="#837AB9"/>
<path d="M541.67 713.32C543.945 713.352 546.133 714.196 547.84 715.7C549.532 717.109 550.679 719.065 551.08 721.23C551.269 722.356 551.204 723.509 550.889 724.607C550.574 725.704 550.018 726.716 549.26 727.57C548.67 728.37 547.855 728.975 546.92 729.31C546.205 729.514 545.44 729.461 544.76 729.16C542.828 728.145 541.186 726.655 539.99 724.83C538.073 722.13 536.476 719.218 535.23 716.15C536.959 714.453 539.25 713.446 541.67 713.32ZM525.46 708.17C524.623 708.171 523.791 708.296 522.99 708.54C521.908 708.872 520.922 709.461 520.118 710.256C519.313 711.052 518.713 712.032 518.37 713.11C517.68 715.3 518.6 720.32 520.1 723.45C520.802 723.233 521.475 722.927 522.1 722.54C520.72 719.64 519.99 715.32 520.47 713.79C520.722 713.061 521.139 712.399 521.689 711.858C522.239 711.317 522.907 710.91 523.64 710.67C529.13 708.38 532.69 716.18 532.72 716.24C534.165 719.734 535.993 723.058 538.17 726.15C539.79 728.37 541.67 730.37 543.92 731.24C545.063 731.71 546.33 731.784 547.52 731.45C548.898 730.997 550.109 730.144 551 729C551.951 727.893 552.65 726.593 553.049 725.189C553.448 723.785 553.537 722.312 553.31 720.87C552.824 718.182 551.408 715.75 549.31 714C547.212 712.188 544.532 711.191 541.76 711.191C538.988 711.191 536.308 712.188 534.21 714C533.494 712.453 532.395 711.113 531.019 710.107C529.642 709.101 528.032 708.462 526.34 708.25C526.05 708.25 525.77 708.25 525.48 708.25L525.46 708.17Z" fill="#837AB9"/>
<path d="M601.22 478.12C600.97 478.129 600.729 478.22 600.536 478.379C600.343 478.538 600.207 478.756 600.15 479C600.15 479 597.36 491.77 594.51 504.85C593.09 511.39 591.65 518.01 590.51 523.16C589.37 528.31 588.65 531.83 588.51 532.65C588.51 532.95 588.4 533.51 588.28 534.58C588.16 535.65 588 537.13 587.8 538.99C587.4 542.69 586.8 547.85 586.21 553.99C584.93 566.21 583.21 582.28 581.59 598.26C578.27 630.26 575 661.87 575 661.87V688.1H577.23V662C577.23 662 580.5 630.37 583.82 598.43C585.48 582.43 587.16 566.43 588.44 554.16C589.09 548.05 589.63 542.9 590.03 539.16C590.23 537.31 590.39 535.81 590.51 534.75C590.63 533.69 590.72 532.96 590.72 532.95C590.79 532.5 591.59 528.7 592.72 523.56C593.85 518.42 595.27 511.79 596.72 505.25C599.57 492.17 602.37 479.41 602.37 479.41C602.433 479.121 602.378 478.819 602.219 478.57C602.06 478.321 601.809 478.145 601.52 478.08C601.434 478.065 601.346 478.065 601.26 478.08L601.22 478.12Z" fill="#837AB9"/>
<path d="M599.78 400.28C599.78 400.28 593.68 402.97 593.68 413.11C593.68 423.25 594.58 479.95 601.74 495.17C603.86 499.69 605.74 503.08 607.22 505.65L614.38 454.75L599.78 400.28Z" fill="black"/>
<path d="M592.48 729.62C589.263 731.481 586.29 733.735 583.63 736.33C578.83 741.13 569.81 740.33 569.81 740.33H489.62C487.03 744.57 489.16 747.89 495.16 747.89H592.1C595.72 741.61 595.49 735.95 592.48 729.61V729.62Z" fill="black"/>
<path d="M523.47 717.21C523.177 717.243 522.909 717.389 522.722 717.617C522.535 717.845 522.445 718.136 522.47 718.43C522.5 718.724 522.646 718.994 522.874 719.181C523.103 719.369 523.396 719.458 523.69 719.43C524.073 719.382 524.462 719.416 524.831 719.53C525.2 719.643 525.541 719.834 525.83 720.09C526.176 720.416 526.446 720.814 526.619 721.257C526.792 721.7 526.864 722.176 526.83 722.65C526.83 722.947 526.948 723.232 527.158 723.442C527.368 723.652 527.653 723.77 527.95 723.77C528.247 723.77 528.532 723.652 528.742 723.442C528.952 723.232 529.07 722.947 529.07 722.65C529.098 721.865 528.961 721.083 528.668 720.355C528.375 719.626 527.933 718.967 527.37 718.42C526.848 717.96 526.237 717.614 525.574 717.404C524.911 717.194 524.211 717.124 523.52 717.2L523.47 717.21Z" fill="#837AB9"/>
<path d="M516.11 721.44C515.817 721.473 515.549 721.619 515.362 721.847C515.175 722.075 515.085 722.366 515.11 722.66C515.14 722.954 515.286 723.224 515.514 723.411C515.743 723.598 516.036 723.688 516.33 723.66C516.713 723.612 517.102 723.646 517.471 723.76C517.84 723.873 518.181 724.064 518.47 724.32C518.815 724.647 519.083 725.046 519.256 725.488C519.429 725.931 519.502 726.406 519.47 726.88C519.47 727.177 519.588 727.462 519.798 727.672C520.008 727.882 520.293 728 520.59 728C520.887 728 521.172 727.882 521.382 727.672C521.592 727.462 521.71 727.177 521.71 726.88C521.739 726.097 521.603 725.316 521.31 724.589C521.017 723.862 520.574 723.205 520.01 722.66C519.488 722.2 518.877 721.854 518.214 721.644C517.551 721.434 516.851 721.364 516.16 721.44H516.11Z" fill="#837AB9"/>
<path d="M605.14 619C596.74 637.91 577.14 661.89 582.47 661.35C588.8 660.72 595.92 660.6 595.92 660.6C600.453 647.098 603.544 633.153 605.14 619Z" fill="black"/>
<path d="M668.8 605.82C678.11 625.82 687.24 645.82 693.24 660.27L711.33 651.38C711.33 651.38 715.81 646.31 708.05 646.01C703.05 645.82 682.66 622.42 668.8 605.82Z" fill="black"/>
<path d="M343.36 331.8C343.36 333.92 345.75 336.18 352.79 335.11C359 334.16 370.3 331.46 373.58 331.75C376.86 332.04 392.32 339.32 398.81 338.44C403.81 337.76 417.87 324.44 423.97 318.44C433.27 316.44 482.28 302.03 504.73 294.7C505.93 285.39 479.29 264.25 479.29 264.25L411.72 299.41C411.72 299.41 397.12 298.21 391.97 298.51C386.82 298.81 373.35 295.72 369.65 295.4C365.95 295.08 368.79 301.9 373.32 304.03C377.85 306.16 381.32 307.63 381.32 307.63C381.32 307.63 366.41 318.69 364.22 319.63C362.03 320.57 348.3 327.58 345.22 329.13C344.704 329.379 344.264 329.764 343.949 330.243C343.634 330.722 343.454 331.277 343.43 331.85L343.36 331.8Z" fill="#F9B098"/>
<path d="M588.2 256.78L496.41 297.43L479.29 264.22C479.29 264.22 531.78 221.46 543.29 209.53C570.16 181.61 622.89 240.75 588.22 256.78H588.2Z" fill="#F48032"/>
<path d="M411.72 299.37L417.62 310.05C417.62 310.05 418.62 312.05 419.55 309.87C420.2 308.27 420.11 300.16 418.55 295.8L411.7 299.37H411.72Z" fill="black"/>
<path d="M498.31 296C503.23 288.83 479.31 264.22 479.31 264.22C478.93 274.02 484.97 292.88 487.4 299.87C490.9 299.87 493.67 298.49 496.4 297.43C497.164 297.157 497.826 296.658 498.3 296H498.31Z" fill="black"/>
<path d="M479.29 264.22L496.41 297.43C496.41 297.43 508.11 308.66 511.14 302.43C514.17 296.2 503.14 277.03 494.52 268.73C485.9 260.43 479.29 264.18 479.29 264.18V264.22Z" fill="white"/>
<path d="M374.91 317C374.84 320.62 375.98 324.22 377.23 325.76C377.23 325.76 377.69 325.32 384.93 320.98C392.17 316.64 400.3 320.82 404.74 322.69C407.82 323.99 411.26 326.91 413.1 328.61L414.54 327.32C414.06 325.98 412.83 324.08 409.99 321.45C406.61 318.32 403.36 317 397.1 316.28C390.84 315.56 381.28 307.61 381.28 307.61C381.28 307.61 379.04 309.26 376.36 311.21C375.391 312.985 374.891 314.978 374.91 317Z" fill="black"/>
<path d="M556.77 329.61C556.32 329.61 544.43 348.14 551.53 349.15C591.24 354.8 631.47 356.39 672.85 349.15C679.93 347.91 668.06 329.61 667.62 329.61H556.77Z" fill="white"/>
<path d="M630.72 180.69L691.91 205C691.91 205 668.84 284.2 669.6 309.42C679.23 317.42 680.11 333.58 672.6 337.92C633.7 342.64 594.6 345.76 554.14 337.92C544.05 337.02 542.47 322.92 549.61 308.61C549.61 308.61 549.23 211.61 549.23 205C557.09 200.46 592.63 181.91 592.63 181.91L630.72 180.73V180.69Z" fill="#F48032"/>
<path d="M625.9 133.53L627.09 176.35C627.09 208.35 592.63 208.24 592.63 181.87L598.89 151.87L625.89 133.52L625.9 133.53Z" fill="#F9B098"/>
<path d="M615.79 140.39L598.89 151.88L596.14 165.06C601.53 165.5 609.2 165.06 615.14 160.37C625.43 152.32 615.78 140.37 615.78 140.37L615.79 140.39Z" fill="black"/>
<path d="M586.21 96.68V139.5C586.21 139.5 585.47 154.71 603 156.28C620.53 157.85 625.9 139.65 626 130.99C626.1 122.33 626 108.42 626 94.89C626 81.36 586.16 75.05 586.16 96.68H586.21Z" fill="#F9B098"/>
<path d="M591.25 116C591.25 116 586.68 121.71 584.65 121.71C582.62 121.71 584.02 127.04 588.08 126.79C592.14 126.54 594.48 112.79 591.25 116Z" fill="black"/>
<path d="M611.8 205.88L622.05 200C622.05 200 620.12 193.17 616.58 194.07C613.04 194.97 609.67 202.24 611.8 205.92V205.88Z" fill="black"/>
<path d="M600.46 206.09L590.21 200.18C590.21 200.18 592.14 193.34 595.67 194.24C599.2 195.14 602.58 202.41 600.46 206.09Z" fill="black"/>
<path d="M635.66 182.65C634.22 188.81 631.21 197.43 624.95 208.27C624.95 208.27 648.13 198.09 655.31 190.44L635.66 182.65Z" fill="black"/>
<path d="M605.69 213.87C605.475 213.872 605.265 213.938 605.087 214.059C604.909 214.18 604.771 214.351 604.69 214.55C597.38 231.79 594.91 255.1 594.03 274.27C593.59 283.85 593.55 292.4 593.53 298.61C593.53 301.71 593.53 304.23 593.46 305.99C593.46 306.86 593.39 307.55 593.34 307.99C593.34 308.17 593.34 308.28 593.29 308.35C589.534 311.202 586.558 314.955 584.635 319.262C582.712 323.568 581.906 328.29 582.29 332.99C582.77 335.982 583.438 338.941 584.29 341.85L586.74 342.01C585.752 338.991 585.01 335.898 584.52 332.76C583.75 325.12 587.26 315.3 594.91 309.89C595.072 309.799 595.209 309.669 595.309 309.512C595.408 309.355 595.467 309.176 595.48 308.99C595.538 308.743 595.578 308.493 595.6 308.24C595.66 307.68 595.7 306.96 595.73 306.05C595.78 304.24 595.79 301.72 595.8 298.62C595.8 292.41 595.86 283.9 596.3 274.37C597.18 255.31 599.69 232.16 606.78 215.42C606.839 215.286 606.87 215.141 606.873 214.994C606.875 214.847 606.848 214.702 606.793 214.566C606.738 214.43 606.656 214.306 606.553 214.202C606.449 214.098 606.326 214.016 606.19 213.96C606.067 213.904 605.935 213.873 605.8 213.87H605.74H605.69Z" fill="black"/>
<path d="M594.77 171.63C577.34 176.3 583 209.75 588.87 208.8C593.07 208.12 590.65 195.03 595.5 195.67C599.64 196.21 600.32 203.39 600.43 205.48C600.43 205.65 600.43 206.09 600.43 206.09C600.43 210.29 598.43 221.09 603.43 221.4C607.36 221.67 611.86 196.09 616.72 195.45C621.58 194.81 619.44 206.9 623.35 208.59C627.26 210.28 639.1 194 638.47 184.64C637.84 175.28 626.93 171.64 626.93 171.64C626.93 172.04 627.01 182.09 615.26 188.87C611.5 191.04 609.26 195.59 608.67 199.47C606.99 199.897 605.23 199.897 603.55 199.47C603.201 197.388 602.442 195.396 601.315 193.611C600.189 191.825 598.719 190.282 596.99 189.07C591.69 185.69 594.73 172.47 594.77 171.64V171.63Z" fill="white"/>
<path d="M608.84 235.23C608.84 235.662 608.668 236.077 608.363 236.383C608.057 236.688 607.642 236.86 607.21 236.86C606.779 236.857 606.367 236.684 606.064 236.379C605.76 236.074 605.59 235.661 605.59 235.23C605.59 234.8 605.761 234.388 606.064 234.085C606.368 233.781 606.78 233.61 607.21 233.61C607.424 233.609 607.635 233.65 607.833 233.73C608.031 233.811 608.21 233.93 608.362 234.081C608.513 234.232 608.634 234.411 608.716 234.608C608.798 234.805 608.84 235.016 608.84 235.23Z" fill="black"/>
<path d="M605.72 257.15C605.72 257.58 605.549 257.992 605.245 258.296C604.942 258.599 604.53 258.77 604.1 258.77C603.669 258.77 603.256 258.6 602.951 258.296C602.645 257.993 602.473 257.581 602.47 257.15C602.452 256.926 602.481 256.701 602.555 256.488C602.629 256.276 602.745 256.081 602.898 255.916C603.051 255.751 603.236 255.619 603.442 255.529C603.648 255.439 603.87 255.392 604.095 255.392C604.32 255.392 604.542 255.439 604.748 255.529C604.954 255.619 605.139 255.751 605.292 255.916C605.444 256.081 605.561 256.276 605.635 256.488C605.709 256.701 605.738 256.926 605.72 257.15Z" fill="black"/>
<path d="M603.43 280.83C603.43 281.26 603.259 281.672 602.955 281.976C602.652 282.279 602.24 282.45 601.81 282.45C601.379 282.45 600.966 282.28 600.661 281.976C600.356 281.673 600.183 281.261 600.18 280.83C600.18 280.398 600.352 279.983 600.657 279.677C600.963 279.372 601.378 279.2 601.81 279.2C602.024 279.2 602.235 279.242 602.432 279.324C602.629 279.406 602.808 279.527 602.959 279.678C603.11 279.83 603.229 280.009 603.31 280.207C603.39 280.405 603.431 280.616 603.43 280.83Z" fill="black"/>
<path d="M604.48 302.31C604.48 302.524 604.438 302.735 604.356 302.932C604.274 303.129 604.153 303.309 604.002 303.459C603.85 303.61 603.671 303.729 603.473 303.81C603.275 303.89 603.064 303.931 602.85 303.93C602.42 303.93 602.008 303.759 601.704 303.456C601.401 303.152 601.23 302.74 601.23 302.31C601.262 301.901 601.447 301.519 601.748 301.241C602.05 300.962 602.445 300.808 602.855 300.808C603.265 300.808 603.66 300.962 603.962 301.241C604.263 301.519 604.448 301.901 604.48 302.31Z" fill="black"/>
<path d="M622.39 133.57C622.39 133.57 622.6 144.33 619.54 149.71C616.48 155.09 608.68 159.71 594.96 158.47C581.24 157.23 579.24 150.55 579.77 144.75C580.3 138.95 585.99 138.53 585.89 135.75C585.79 132.97 587.37 130.37 590.21 130.27C593.05 130.17 594.54 132.38 593.06 132.69C591.58 133 590 130.9 590 134.38C590 137.86 592.85 142.29 598 141.38C603.15 140.47 605.7 131.78 603.06 132.3C600.42 132.82 597.47 134.1 597.47 132.72C597.47 131.34 601.59 129.03 610.24 128.5C618.89 127.97 618.78 137.68 619.42 135.68C619.656 135.082 620.06 134.564 620.584 134.19C621.107 133.815 621.727 133.6 622.37 133.57H622.39Z" fill="#C84F49"/>
<path d="M591.59 93.59C592.11 88.84 597.49 81.45 600.76 88.31C604.03 95.17 601.19 106.31 608.25 109.83C615.31 113.35 619.44 112.47 619.44 112.47C619.44 112.47 620.7 122.28 622.92 123.55C625.14 124.82 635.26 118.06 635.26 118.06C635.26 118.06 641.81 111.21 642.97 102.77C644.13 94.33 638.3 85.33 630.49 77.52C612.76 59.79 592.22 76.71 592.22 76.71C592.22 76.71 586.1 72.49 582.09 78.92C578.08 85.35 580.3 98.65 582.2 103.82C583.28 106.818 584.692 109.686 586.41 112.37L586.21 96.68C586.21 93.3 589.38 93.59 591.58 93.59H591.59Z" fill="#C84F49"/>
<path d="M633.31 127.41C635.1 130.41 636.74 132.93 639.12 133.98C641.5 135.03 632.37 147.41 627.28 142.23C622.19 137.05 626.89 129.05 633.28 127.41H633.31Z" fill="#C84F49"/>
<path d="M637 127.63C634.78 132.63 629.9 135.24 626.09 133.54C622.28 131.84 621.01 126.43 623.23 121.47C625.45 116.51 630.34 113.85 634.14 115.55C637.94 117.25 639.22 122.66 637 127.63Z" fill="#F9B098"/>
<path d="M627.13 128.08C627.13 127.82 626.68 123.42 628.81 121.26C630.94 119.1 633.81 120.88 633.47 121.74C633.13 122.6 630.93 122.56 631.47 123.9C632.01 125.24 632.28 131.04 627.15 128.08H627.13Z" fill="black"/>
<path d="M599.1 85.63C599.1 85.63 604.6 88.44 603.64 98.38C602.68 108.32 607.41 119.24 619.13 114.91C630.85 110.58 628.82 105.18 628.82 105.18C628.82 105.18 622.2 114.52 613.57 113.82C604.94 113.12 604.85 99.13 606.57 94.23C608.29 89.33 602.98 83.77 599.08 85.63H599.1Z" fill="#C84F49"/>
<path d="M549.92 286.28C554.36 281.83 558.54 284.83 563.23 289.01L614.66 335.01C619.35 339.2 619.11 346.61 614.66 351.01C610.21 355.41 602.8 355.7 598.66 351.01L552.66 299.57C548.47 294.89 545.47 290.71 549.92 286.27V286.28Z" fill="#616AB1"/>
<path d="M549.92 286.28C545.47 290.72 548.47 294.9 552.66 299.58L561 309C565.365 305.688 569.258 301.795 572.57 297.43L563.23 289C558.54 284.82 554.36 281.82 549.92 286.27V286.28Z" fill="black"/>
<path d="M560.35 211.46C565.947 217.057 570.388 223.701 573.417 231.014C576.446 238.327 578.005 246.165 578.005 254.08C578.005 261.995 576.446 269.833 573.417 277.146C570.388 284.459 565.947 291.103 560.35 296.7C554.753 302.297 548.109 306.738 540.796 309.767C533.483 312.796 525.645 314.355 517.73 314.355C509.815 314.355 501.977 312.796 494.664 309.767C487.351 306.738 480.707 302.297 475.11 296.7C469.513 291.103 465.072 284.459 462.043 277.146C459.014 269.833 457.455 261.995 457.455 254.08C457.455 246.165 459.014 238.327 462.043 231.014C465.072 223.701 469.513 217.057 475.11 211.46C486.416 200.16 501.746 193.813 517.73 193.813C533.714 193.813 549.044 200.16 560.35 211.46Z" fill="#5F95CF"/>
<path d="M555 224C563.61 232.625 568.446 244.313 568.446 256.5C568.446 268.687 563.61 280.376 555 289C546.376 297.61 534.687 302.446 522.5 302.446C510.313 302.446 498.624 297.61 490 289C481.39 280.376 476.554 268.687 476.554 256.5C476.554 244.313 481.39 232.625 490 224C498.624 215.39 510.313 210.554 522.5 210.554C534.687 210.554 546.376 215.39 555 224Z" fill="black"/>
<path d="M550.22 221.59C558.83 230.215 563.666 241.903 563.666 254.09C563.666 266.277 558.83 277.966 550.22 286.59C541.595 295.2 529.907 300.036 517.72 300.036C505.533 300.036 493.844 295.2 485.22 286.59C476.61 277.966 471.774 266.277 471.774 254.09C471.774 241.903 476.61 230.215 485.22 221.59C493.844 212.98 505.533 208.144 517.72 208.144C529.907 208.144 541.595 212.98 550.22 221.59Z" fill="white"/>
<path d="M710.72 290.07C705.08 283.45 675.07 300.15 675.07 300.15L612.15 313.67L611.71 334.93L613.19 335C613.19 335 664.97 337.57 691.71 336.17C698.18 335.83 713.21 334.8 713.58 316.81C713.68 311.81 712.51 301.11 711.58 292.27C711.516 291.465 711.209 290.698 710.7 290.07H710.72Z" fill="#F9B098"/>
<path d="M702.75 219.46L711.6 292.27L675.07 300.15C675.07 300.15 654 264.72 645.44 250.53C625.44 217.31 696.31 181.81 702.75 219.46Z" fill="#F48032"/>
<path d="M619.23 312.15L612.15 313.67L615.06 325.52C615.06 325.52 615.56 327.72 616.97 325.85C618.13 324.32 619.89 316.4 619.23 312.15Z" fill="black"/>
<path d="M710.72 290.07C705.08 283.45 675.07 300.15 675.07 300.15C684.44 303.07 705.14 301.93 712.53 301.4C712.22 298.33 711.91 295.22 711.6 292.28C711.538 291.471 711.231 290.7 710.72 290.07Z" fill="black"/>
<path d="M675.07 300.15L711.6 292.27C711.6 292.27 725.49 283.91 720.3 279.37C715.11 274.83 693.69 280.51 683.44 286.63C673.19 292.75 675.07 300.15 675.07 300.15Z" fill="white"/>
<path d="M612.15 313.67C612.15 313.67 585.75 306.97 576.06 306.62C566.37 306.27 542.52 319.22 538.31 320.92C534.1 322.62 537.15 326.72 543.84 327.92C550.53 329.12 553.7 327.52 553.7 327.52C553.7 327.52 553.06 337.97 559.7 338.11C564.3 338.2 566.06 338.11 566.5 340.27C567.31 344.34 572.71 343.52 580.25 343.27C591.9 342.91 611.73 334.93 611.73 334.93C623.38 324.62 612.37 320.66 612.17 313.67H612.15Z" fill="#F9B098"/>
<path d="M612.15 313.67C612.15 313.67 585.27 297.32 583.22 295.19C581.17 293.06 575.79 295.19 581.39 303.84C586.99 312.49 593.5 315.04 595.72 315.53C597.94 316.02 612.15 313.67 612.15 313.67Z" fill="#F9B098"/>
<path d="M561.45 320.35C561.45 320.35 550.05 321.63 544.11 327.94C548.67 329.7 552.11 327.83 553.7 327.5L561.45 320.35Z" fill="black"/>
<path d="M181.72 0.100044H382.9C386.39 0.0921326 389.847 0.773727 393.073 2.10569C396.299 3.43765 399.231 5.39374 401.698 7.86164C404.166 10.3295 406.122 13.2606 407.454 16.4866C408.786 19.7126 409.468 23.1699 409.46 26.66V208.44C409.468 211.93 408.786 215.387 407.454 218.613C406.122 221.839 404.166 224.771 401.698 227.238C399.231 229.706 396.299 231.662 393.073 232.994C389.847 234.326 386.39 235.008 382.9 235H181.72C178.231 235.008 174.775 234.327 171.55 232.995C168.326 231.664 165.396 229.708 162.929 227.241C160.462 224.774 158.506 221.844 157.175 218.62C155.843 215.395 155.162 211.939 155.17 208.45V26.66C155.161 23.1704 155.841 19.7133 157.172 16.4874C158.503 13.2615 160.458 10.3303 162.925 7.86224C165.392 5.3942 168.323 3.43796 171.548 2.10587C174.774 0.773788 178.23 0.0921274 181.72 0.100044Z" fill="white"/>
<path d="M181.72 0.100044C178.23 0.0921274 174.774 0.773788 171.548 2.10587C168.323 3.43796 165.392 5.3942 162.925 7.86224C160.458 10.3303 158.503 13.2615 157.172 16.4874C155.841 19.7133 155.161 23.1704 155.17 26.66V41.43H409.46V26.66C409.468 23.1699 408.786 19.7126 407.454 16.4866C406.122 13.2606 404.166 10.3295 401.698 7.86164C399.231 5.39374 396.299 3.43765 393.073 2.10569C389.847 0.773727 386.39 0.0921326 382.9 0.100044H181.72Z" fill="#4F469C"/>
<path d="M326 24.0001C326.002 25.2999 325.618 26.5711 324.898 27.6529C324.177 28.7346 323.151 29.5783 321.951 30.0771C320.751 30.5759 319.429 30.7074 318.154 30.455C316.879 30.2027 315.708 29.5777 314.788 28.6593C313.868 27.7409 313.241 26.5702 312.987 25.2955C312.733 24.0208 312.862 22.6992 313.359 21.4981C313.856 20.2971 314.698 19.2704 315.779 18.548C316.86 17.8256 318.13 17.4401 319.43 17.4401C320.292 17.4388 321.146 17.6075 321.943 17.9365C322.741 18.2656 323.465 18.7486 324.075 19.3579C324.685 19.9672 325.169 20.6908 325.5 21.4874C325.83 22.2839 326 23.1378 326 24.0001Z" fill="white"/>
<path d="M352.22 24C352.22 25.2975 351.835 26.5658 351.114 27.6446C350.394 28.7233 349.369 29.5642 348.17 30.0607C346.972 30.5572 345.653 30.6871 344.38 30.434C343.108 30.1808 341.939 29.5561 341.021 28.6386C340.104 27.7212 339.479 26.5523 339.226 25.2798C338.973 24.0073 339.103 22.6883 339.599 21.4896C340.096 20.2909 340.937 19.2664 342.015 18.5456C343.094 17.8247 344.363 17.44 345.66 17.44C346.522 17.4387 347.375 17.6075 348.172 17.9367C348.968 18.2659 349.692 18.749 350.302 19.3585C350.911 19.9679 351.394 20.6916 351.723 21.488C352.053 22.2845 352.221 23.1382 352.22 24Z" fill="white"/>
<path d="M379.71 24.0001C379.712 25.3003 379.328 26.572 378.607 27.6539C377.886 28.7359 376.86 29.5795 375.659 30.078C374.458 30.5765 373.136 30.7075 371.861 30.4543C370.585 30.2011 369.414 29.5752 368.494 28.6558C367.575 27.7363 366.949 26.5647 366.696 25.2894C366.443 24.014 366.574 22.6921 367.072 21.4912C367.571 20.2903 368.414 19.2643 369.496 18.5431C370.578 17.822 371.85 17.4381 373.15 17.4401C374.89 17.4401 376.558 18.1312 377.789 19.3614C379.019 20.5917 379.71 22.2602 379.71 24.0001Z" fill="white"/>
<path d="M293.12 134.62C293.12 145.534 289.884 156.202 283.82 165.276C277.757 174.351 269.139 181.423 259.056 185.6C248.974 189.776 237.879 190.869 227.175 188.74C216.471 186.611 206.639 181.355 198.922 173.638C191.205 165.921 185.949 156.089 183.82 145.385C181.691 134.681 182.784 123.586 186.96 113.504C191.137 103.421 198.209 94.8028 207.284 88.7395C216.358 82.6763 227.026 79.44 237.94 79.44V134.62H293.12Z" fill="#56BB6A"/>
<path d="M247.71 72C262.343 72 276.377 77.8122 286.725 88.1583C297.073 98.5044 302.887 112.537 302.89 127.17H247.71V72Z" fill="#EF9D34"/>
<path d="M329.64 89.13C329.327 89.13 329.027 89.2544 328.806 89.4756C328.584 89.6969 328.46 89.9971 328.46 90.31C328.46 90.465 328.491 90.6184 328.55 90.7616C328.609 90.9048 328.696 91.0348 328.806 91.1444C328.915 91.254 329.045 91.3409 329.188 91.4002C329.332 91.4595 329.485 91.49 329.64 91.49H377.75C377.905 91.49 378.058 91.4595 378.202 91.4002C378.345 91.3409 378.475 91.254 378.584 91.1444C378.694 91.0348 378.781 90.9048 378.84 90.7616C378.899 90.6184 378.93 90.465 378.93 90.31C378.93 89.9971 378.806 89.6969 378.584 89.4756C378.363 89.2544 378.063 89.13 377.75 89.13H329.64Z" fill="black"/>
<path d="M329.64 73.75C329.327 73.75 329.027 73.8743 328.806 74.0956C328.584 74.3169 328.46 74.6171 328.46 74.93C328.46 75.243 328.584 75.5431 328.806 75.7644C329.027 75.9857 329.327 76.11 329.64 76.11H351.16C351.473 76.11 351.773 75.9857 351.994 75.7644C352.216 75.5431 352.34 75.243 352.34 74.93C352.34 74.6171 352.216 74.3169 351.994 74.0956C351.773 73.8743 351.473 73.75 351.16 73.75H329.64Z" fill="black"/>
<path d="M346.18 173.85C345.867 173.85 345.567 173.974 345.346 174.196C345.124 174.417 345 174.717 345 175.03C345 175.343 345.124 175.643 345.346 175.864C345.567 176.086 345.867 176.21 346.18 176.21H389.56C389.873 176.21 390.173 176.086 390.394 175.864C390.616 175.643 390.74 175.343 390.74 175.03C390.74 174.717 390.616 174.417 390.394 174.196C390.173 173.974 389.873 173.85 389.56 173.85H346.18Z" fill="black"/>
<path d="M346.18 151.9C345.867 151.9 345.567 152.024 345.346 152.246C345.124 152.467 345 152.767 345 153.08C345 153.393 345.124 153.693 345.346 153.914C345.567 154.136 345.867 154.26 346.18 154.26H390.13C390.443 154.26 390.743 154.136 390.964 153.914C391.186 153.693 391.31 153.393 391.31 153.08C391.31 152.767 391.186 152.467 390.964 152.246C390.743 152.024 390.443 151.9 390.13 151.9H346.18Z" fill="black"/>
<path d="M346.18 128.33C345.867 128.33 345.567 128.454 345.346 128.676C345.124 128.897 345 129.197 345 129.51C345 129.823 345.124 130.123 345.346 130.344C345.567 130.566 345.867 130.69 346.18 130.69H390.13C390.443 130.69 390.743 130.566 390.964 130.344C391.186 130.123 391.31 129.823 391.31 129.51C391.31 129.197 391.186 128.897 390.964 128.676C390.743 128.454 390.443 128.33 390.13 128.33H346.18Z" fill="black"/>
<path d="M288.59 185.27C281.94 191.925 274.044 197.205 265.354 200.808C256.663 204.411 247.348 206.267 237.94 206.27V134.62L288.59 185.27Z" fill="#616AB1"/>
<path d="M237.94 134.62L276.94 173.62C278.999 171.563 280.892 169.346 282.6 166.99L237.93 134.61L237.94 134.62Z" fill="black"/>
<path d="M329.6 122.25H336.44C337.212 122.25 337.952 122.557 338.498 123.102C339.043 123.648 339.35 124.388 339.35 125.16V132C339.35 132.382 339.275 132.761 339.128 133.114C338.982 133.467 338.768 133.787 338.498 134.058C338.227 134.328 337.907 134.542 337.554 134.689C337.201 134.835 336.822 134.91 336.44 134.91H329.6C329.218 134.91 328.839 134.835 328.486 134.689C328.133 134.542 327.813 134.328 327.542 134.058C327.272 133.787 327.058 133.467 326.911 133.114C326.765 132.761 326.69 132.382 326.69 132V125.16C326.69 124.778 326.765 124.399 326.911 124.046C327.058 123.693 327.272 123.373 327.542 123.102C327.813 122.832 328.133 122.618 328.486 122.472C328.839 122.325 329.218 122.25 329.6 122.25Z" fill="#616AB1"/>
<path d="M329.6 146.09H336.44C337.212 146.09 337.952 146.397 338.498 146.942C339.043 147.488 339.35 148.228 339.35 149V155.84C339.35 156.612 339.043 157.352 338.498 157.898C337.952 158.443 337.212 158.75 336.44 158.75H329.6C329.218 158.75 328.839 158.675 328.486 158.529C328.133 158.382 327.813 158.168 327.542 157.898C327.272 157.627 327.058 157.307 326.911 156.954C326.765 156.601 326.69 156.222 326.69 155.84V149C326.69 148.618 326.765 148.239 326.911 147.886C327.058 147.533 327.272 147.213 327.542 146.942C327.813 146.672 328.133 146.458 328.486 146.312C328.839 146.165 329.218 146.09 329.6 146.09Z" fill="#EF9D34"/>
<path d="M329.6 167.61H336.44C337.212 167.61 337.952 167.917 338.498 168.462C339.043 169.008 339.35 169.748 339.35 170.52V177.36C339.35 177.742 339.275 178.121 339.128 178.474C338.982 178.827 338.768 179.148 338.498 179.418C338.227 179.688 337.907 179.902 337.554 180.049C337.201 180.195 336.822 180.27 336.44 180.27H329.6C329.218 180.27 328.839 180.195 328.486 180.049C328.133 179.902 327.813 179.688 327.542 179.418C327.272 179.148 327.058 178.827 326.911 178.474C326.765 178.121 326.69 177.742 326.69 177.36V170.52C326.69 170.138 326.765 169.759 326.911 169.406C327.058 169.053 327.272 168.733 327.542 168.462C327.813 168.192 328.133 167.978 328.486 167.832C328.839 167.685 329.218 167.61 329.6 167.61Z" fill="#56BB6A"/>
</svg>
